{
  "accessors": [
    {
      "bufferView": 2,
      "componentType": 5126,
      "count": 10593,
      "max": [
        0.3658519983291626,
        0.3642509877681732,
        5.593527793884277
      ],
      "min": [
        -0.36238300800323486,
        -0.3659150004386902,
        5.465818881988525
      ],
      "type": "VEC3"
    },
    {
      "bufferView": 2,
      "byteOffset": 127116,
      "componentType": 5126,
      "count": 10593,
      "max": [
        0.9995507597923279,
        0.9991897344589233,
        1.0
      ],
      "min": [
        -0.9969955086708069,
        -0.9998220205307007,
        -0.9999977350234985
      ],
      "type": "VEC3"
    },
    {
      "bufferView": 3,
      "componentType": 5126,
      "count": 10593,
      "max": [
        0.9996089339256287,
        0.9994093179702759,
        0.999866247177124,
        1.0
      ],
      "min": [
        -0.9941588640213013,
        -0.9997111558914185,
        -0.9996591210365295,
        1.0
      ],
      "type": "VEC4"
    },
    {
      "bufferView": 1,
      "componentType": 5126,
      "count": 10593,
      "max": [
        0.5402079820632935,
        1.0
      ],
      "min": [
        0.0,
        0.0
      ],
      "type": "VEC2"
    },
    {
      "bufferView": 0,
      "componentType": 5125,
      "count": 60444,
      "type": "SCALAR"
    },
    {
      "bufferView": 2,
      "byteOffset": 254232,
      "componentType": 5126,
      "count": 525,
      "max": [
        0.6928470134735107,
        0.6928480267524719,
        4.0784010887146
      ],
      "min": [
        -0.6928480267524719,
        -0.6928470134735107,
        0.07831600308418274
      ],
      "type": "VEC3"
    },
    {
      "bufferView": 2,
      "byteOffset": 260532,
      "componentType": 5126,
      "count": 525,
      "max": [
        1.0,
        1.0,
        0.587609052658081
      ],
      "min": [
        -1.0,
        -1.0,
        -1.0
      ],
      "type": "VEC3"
    },
    {
      "bufferView": 1,
      "byteOffset": 84744,
      "componentType": 5126,
      "count": 525,
      "max": [
        1.0,
        0.9086610078811646
      ],
      "min": [
        0.0,
        0.0
      ],
      "type": "VEC2"
    },
    {
      "bufferView": 0,
      "byteOffset": 241776,
      "componentType": 5125,
      "count": 2820,
      "type": "SCALAR"
    },
    {
      "bufferView": 2,
      "byteOffset": 266832,
      "componentType": 5126,
      "count": 1714,
      "max": [
        0.7188900113105774,
        0.7188910245895386,
        5.53569221496582
      ],
      "min": [
        -0.7188900113105774,
        -0.7188900113105774,
        0.0031389999203383923
      ],
      "type": "VEC3"
    },
    {
      "bufferView": 2,
      "byteOffset": 287400,
      "componentType": 5126,
      "count": 1714,
      "max": [
        1.0,
        1.0,
        1.0
      ],
      "min": [
        -1.0,
        -1.0,
        -1.0
      ],
      "type": "VEC3"
    },
    {
      "bufferView": 1,
      "byteOffset": 88944,
      "componentType": 5126,
      "count": 1714,
      "max": [
        1.0,
        0.7494990229606628
      ],
      "min": [
        0.0,
        0.0
      ],
      "type": "VEC2"
    },
    {
      "bufferView": 0,
      "byteOffset": 253056,
      "componentType": 5125,
      "count": 8640,
      "type": "SCALAR"
    },
    {
      "bufferView": 2,
      "byteOffset": 307968,
      "componentType": 5126,
      "count": 73,
      "max": [
        0.6796029806137085,
        0.0,
        4.412838935852051
      ],
      "min": [
        -0.6796029806137085,
        -0.7145770192146301,
        0.9237549901008606
      ],
      "type": "VEC3"
    },
    {
      "bufferView": 2,
      "byteOffset": 308844,
      "componentType": 5126,
      "count": 73,
      "max": [
        0.9872932434082031,
        -0.15568006038665771,
        0.09916801750659943
      ],
      "min": [
        -0.9872934818267822,
        -1.0,
        0.0
      ],
      "type": "VEC3"
    },
    {
      "bufferView": 1,
      "byteOffset": 102656,
      "componentType": 5126,
      "count": 73,
      "max": [
        0.9960860013961792,
        0.46671000123023987
      ],
      "min": [
        0.007081999909132719,
        0.0
      ],
      "type": "VEC2"
    },
    {
      "bufferView": 0,
      "byteOffset": 287616,
      "componentType": 5125,
      "count": 288,
      "type": "SCALAR"
    }
  ],
  "asset": {
    "extras": {
      "author": "eder (https://sketchfab.com/eder_e)",
      "license": "CC-BY-4.0 (http://creativecommons.org/licenses/by/4.0/)",
      "source": "https://sketchfab.com/3d-models/beer-bottle-001bb856494b44a68088d264ef5374bf",
      "title": "Beer bottle"
    },
    "generator": "Sketchfab-16.17.0",
    "version": "2.0"
  },
  "bufferViews": [
    {
      "buffer": 0,
      "byteLength": 288768,
      "name": "floatBufferViews",
      "target": 34963
    },
    {
      "buffer": 0,
      "byteLength": 103240,
      "byteOffset": 288768,
      "byteStride": 8,
      "name": "floatBufferViews",
      "target": 34962
    },
    {
      "buffer": 0,
      "byteLength": 309720,
      "byteOffset": 392008,
      "byteStride": 12,
      "name": "floatBufferViews",
      "target": 34962
    },
    {
      "buffer": 0,
      "byteLength": 169488,
      "byteOffset": 701728,
      "byteStride": 16,
      "name": "floatBufferViews",
      "target": 34962
    }
  ],
  "buffers": [
    {
      "byteLength": 871216,
      "uri": "scene.bin"
    }
  ],
  "extensionsUsed": [
    "KHR_materials_specular",
    "KHR_materials_transmission"
  ],
  "images": [
    {
      "uri": "textures/aiStandardSurface3SG_baseColor.png"
    },
    {
      "uri": "textures/aiStandardSurface3SG_metallicRoughness.png"
    },
    {
      "uri": "textures/aiStandardSurface5SG_baseColor.png"
    },
    {
      "uri": "textures/aiStandardSurface5SG_metallicRoughness.png"
    },
    {
      "uri": "textures/aiStandardSurface5SG_normal.png"
    }
  ],
  "materials": [
    {
      "alphaMode": "BLEND",
      "doubleSided": true,
      "extensions": {
        "KHR_materials_specular": {
          "specularColorFactor": [
            1.0,
            1.0,
            1.0
          ],
          "specularFactor": 0.5287635162316685
        }
      },
      "name": "aiStandardSurface2SG",
      "pbrMetallicRoughness": {
        "baseColorFactor": [
          0.3,
          0.3,
          0.3,
          0.3459058160939157
        ],
        "roughnessFactor": 0.1
      }
    },
    {
      "doubleSided": true,
      "name": "aiStandardSurface3SG",
      "pbrMetallicRoughness": {
        "baseColorTexture": {
          "index": 0
        },
        "metallicRoughnessTexture": {
          "index": 1
        }
      }
    },
    {
      "alphaMode": "BLEND",
      "doubleSided": true,
      "extensions": {
        "KHR_materials_specular": {
          "specularColorFactor": [
            1.0,
            1.0,
            1.0
          ],
          "specularFactor": 0.7177164730406796
        },
        "KHR_materials_transmission": {
          "transmissionFactor": 0.30000000000000004
        }
      },
      "name": "aiStandardSurface4SG",
      "pbrMetallicRoughness": {
        "baseColorFactor": [
          0.8014945267390894,
          0.34562039269607814,
          0.026276331107683286,
          0.7
        ],
        "metallicFactor": 0.236191196011264,
        "roughnessFactor": 0.5165730028891516
      }
    },
    {
      "doubleSided": true,
      "name": "aiStandardSurface5SG",
      "normalTexture": {
        "index": 4
      },
      "pbrMetallicRoughness": {
        "baseColorTexture": {
          "index": 2
        },
        "metallicRoughnessTexture": {
          "index": 3
        }
      }
    }
  ],
  "meshes": [
    {
      "name": "Object_0",
      "primitives": [
        {
          "attributes": {
            "NORMAL": 1,
            "POSITION": 0,
            "TANGENT": 2,
            "TEXCOORD_0": 3
          },
          "indices": 4,
          "material": 3,
          "mode": 4
        }
      ]
    },
    {
      "name": "Object_1",
      "primitives": [
        {
          "attributes": {
            "NORMAL": 6,
            "POSITION": 5,
            "TEXCOORD_0": 7
          },
          "indices": 8,
          "material": 2,
          "mode": 4
        }
      ]
    },
    {
      "name": "Object_2",
      "primitives": [
        {
          "attributes": {
            "NORMAL": 10,
            "POSITION": 9,
            "TEXCOORD_0": 11
          },
          "indices": 12,
          "material": 0,
          "mode": 4
        }
      ]
    },
    {
      "name": "Object_3",
      "primitives": [
        {
          "attributes": {
            "NORMAL": 14,
            "POSITION": 13,
            "TEXCOORD_0": 15
          },
          "indices": 16,
          "material": 1,
          "mode": 4
        }
      ]
    }
  ],
  "nodes": [
    {
      "children": [
        1
      ],
      "matrix": [
        1.0,
        0.0,
        0.0,
        0.0,
        0.0,
        2.220446049250313e-16,
        -1.0,
        0.0,
        0.0,
        1.0,
        2.220446049250313e-16,
        0.0,
        0.0,
        0.0,
        0.0,
        1.0
      ],
      "name": "Sketchfab_model"
    },
    {
      "children": [
        2,
        3,
        4,
        5
      ],
      "name": "bottle.obj.cleaner.materialmerger.gles"
    },
    {
      "mesh": 0,
      "name": "Object_2"
    },
    {
      "mesh": 1,
      "name": "Object_3"
    },
    {
      "mesh": 2,
      "name": "Object_4"
    },
    {
      "mesh": 3,
      "name": "Object_5"
    }
  ],
  "samplers": [
    {
      "magFilter": 9729,
      "minFilter": 9987,
      "wrapS": 10497,
      "wrapT": 10497
    }
  ],
  "scene": 0,
  "scenes": [
    {
      "name": "Sketchfab_Scene",
      "nodes": [
        0
      ]
    }
  ],
  "textures": [
    {
      "sampler": 0,
      "source": 0
    },
    {
      "sampler": 0,
      "source": 1
    },
    {
      "sampler": 0,
      "source": 2
    },
    {
      "sampler": 0,
      "source": 3
    },
    {
      "sampler": 0,
      "source": 4
    }
  ]
}
