{
	"asset":{
		"generator":"Khronos glTF Blender I/O v4.2.60",
		"version":"2.0"
	},
	"extensionsUsed":[
		"KHR_materials_transmission",
		"KHR_materials_ior"
	],
	"scene":0,
	"scenes":[
		{
			"extras":{
				"uuid":"6d684f0e-3639-4050-849e-1593049c25c4",
				"assets reported":{}
			},
			"name":"Scene",
			"nodes":[
				0,
				1,
				2,
				3
			]
		}
	],
	"nodes":[
		{
			"mesh":0,
			"name":"bottle_",
			"scale":[
				0.5261552333831787,
				0.5261552333831787,
				0.5261552333831787
			],
			"translation":[
				0.007841110229492188,
				0.5222281217575073,
				0
			]
		},
		{
			"mesh":1,
			"name":"cap",
			"scale":[
				0.5261552333831787,
				0.5261552333831787,
				0.5261552333831787
			],
			"translation":[
				0.007841110229492188,
				0.5222281217575073,
				0
			]
		},
		{
			"mesh":2,
			"name":"luqide",
			"scale":[
				0.5261552333831787,
				0.5261552333831787,
				0.5261552333831787
			],
			"translation":[
				0.007841110229492188,
				0.5222281217575073,
				0
			]
		},
		{
			"mesh":3,
			"name":"bottle_.001",
			"scale":[
				0.536158561706543,
				0.536158561706543,
				0.536158561706543
			],
			"translation":[
				0.007841110229492188,
				0.5222281217575073,
				0
			]
		}
	],
	"materials":[
		{
			"doubleSided":true,
			"extensions":{
				"KHR_materials_transmission":{
					"transmissionFactor":1
				},
				"KHR_materials_ior":{
					"ior":1.4500000476837158
				}
			},
			"name":"bottle",
			"pbrMetallicRoughness":{
				"baseColorFactor":[
					0.800000011920929,
					0.800000011920929,
					0.800000011920929,
					1
				],
				"metallicFactor":0,
				"roughnessFactor":0
			}
		},
		{
			"doubleSided":true,
			"name":"cap",
			"pbrMetallicRoughness":{
				"baseColorFactor":[
					0.8003629446029663,
					0.643157958984375,
					0.25183436274528503,
					1
				],
				"metallicFactor":0,
				"roughnessFactor":0.5
			}
		},
		{
			"doubleSided":true,
			"extensions":{
				"KHR_materials_transmission":{
					"transmissionFactor":1
				},
				"KHR_materials_ior":{
					"ior":1.3300000429153442
				}
			},
			"name":"luqide",
			"pbrMetallicRoughness":{
				"metallicFactor":0,
				"roughnessFactor":0.06363636255264282
			}
		},
		{
			"doubleSided":true,
			"name":"Material.001",
			"pbrMetallicRoughness":{
				"baseColorTexture":{
					"index":0
				},
				"metallicFactor":0,
				"roughnessFactor":0.5
			}
		}
	],
	"meshes":[
		{
			"name":"Cylinder_002",
			"primitives":[
				{
					"attributes":{
						"POSITION":0,
						"NORMAL":1,
						"TEXCOORD_0":2
					},
					"indices":3,
					"material":0
				}
			]
		},
		{
			"name":"Cylinder_003",
			"primitives":[
				{
					"attributes":{
						"POSITION":4,
						"NORMAL":5,
						"TEXCOORD_0":6
					},
					"indices":7,
					"material":1
				}
			]
		},
		{
			"name":"Cylinder_004",
			"primitives":[
				{
					"attributes":{
						"POSITION":8,
						"NORMAL":9,
						"TEXCOORD_0":10
					},
					"indices":11,
					"material":2
				}
			]
		},
		{
			"name":"Cylinder_002.001",
			"primitives":[
				{
					"attributes":{
						"POSITION":12,
						"NORMAL":13,
						"TEXCOORD_0":14
					},
					"indices":15,
					"material":3
				}
			]
		}
	],
	"textures":[
		{
			"sampler":0,
			"source":0
		}
	],
	"images":[
		{
			"mimeType":"image/png",
			"name":"Untitled-2",
			"uri":"texture/Untitled-2.png"
		}
	],
	"accessors":[
		{
			"bufferView":0,
			"componentType":5126,
			"count":68809,
			"max":[
				1.0564683675765991,
				6.681048393249512,
				1.0564683675765991
			],
			"min":[
				-1.0564683675765991,
				-0.9999054670333862,
				-1.0564683675765991
			],
			"type":"VEC3"
		},
		{
			"bufferView":1,
			"componentType":5126,
			"count":68809,
			"type":"VEC3"
		},
		{
			"bufferView":2,
			"componentType":5126,
			"count":68809,
			"type":"VEC2"
		},
		{
			"bufferView":3,
			"componentType":5125,
			"count":402432,
			"type":"SCALAR"
		},
		{
			"bufferView":4,
			"componentType":5126,
			"count":12893,
			"max":[
				0.3846668303012848,
				6.966700077056885,
				0.3846668303012848
			],
			"min":[
				-0.3846668601036072,
				6.3329243659973145,
				-0.3846668601036072
			],
			"type":"VEC3"
		},
		{
			"bufferView":5,
			"componentType":5126,
			"count":12893,
			"type":"VEC3"
		},
		{
			"bufferView":6,
			"componentType":5126,
			"count":12893,
			"type":"VEC2"
		},
		{
			"bufferView":7,
			"componentType":5123,
			"count":75264,
			"type":"SCALAR"
		},
		{
			"bufferView":8,
			"componentType":5126,
			"count":26418,
			"max":[
				0.987023651599884,
				5.710018157958984,
				0.987023651599884
			],
			"min":[
				-0.987023651599884,
				-0.5852252840995789,
				-0.9870235323905945
			],
			"type":"VEC3"
		},
		{
			"bufferView":9,
			"componentType":5126,
			"count":26418,
			"type":"VEC3"
		},
		{
			"bufferView":10,
			"componentType":5126,
			"count":26418,
			"type":"VEC2"
		},
		{
			"bufferView":11,
			"componentType":5123,
			"count":153600,
			"type":"SCALAR"
		},
		{
			"bufferView":12,
			"componentType":5126,
			"count":450,
			"max":[
				1.0558487176895142,
				4.399007797241211,
				1.0558487176895142
			],
			"min":[
				-1.0558487176895142,
				2.75407338142395,
				-0.205985888838768
			],
			"type":"VEC3"
		},
		{
			"bufferView":13,
			"componentType":5126,
			"count":450,
			"type":"VEC3"
		},
		{
			"bufferView":14,
			"componentType":5126,
			"count":450,
			"type":"VEC2"
		},
		{
			"bufferView":15,
			"componentType":5123,
			"count":2220,
			"type":"SCALAR"
		}
	],
	"bufferViews":[
		{
			"buffer":0,
			"byteLength":825708,
			"byteOffset":0,
			"target":34962
		},
		{
			"buffer":0,
			"byteLength":825708,
			"byteOffset":825708,
			"target":34962
		},
		{
			"buffer":0,
			"byteLength":550472,
			"byteOffset":1651416,
			"target":34962
		},
		{
			"buffer":0,
			"byteLength":1609728,
			"byteOffset":2201888,
			"target":34963
		},
		{
			"buffer":0,
			"byteLength":154716,
			"byteOffset":3811616,
			"target":34962
		},
		{
			"buffer":0,
			"byteLength":154716,
			"byteOffset":3966332,
			"target":34962
		},
		{
			"buffer":0,
			"byteLength":103144,
			"byteOffset":4121048,
			"target":34962
		},
		{
			"buffer":0,
			"byteLength":150528,
			"byteOffset":4224192,
			"target":34963
		},
		{
			"buffer":0,
			"byteLength":317016,
			"byteOffset":4374720,
			"target":34962
		},
		{
			"buffer":0,
			"byteLength":317016,
			"byteOffset":4691736,
			"target":34962
		},
		{
			"buffer":0,
			"byteLength":211344,
			"byteOffset":5008752,
			"target":34962
		},
		{
			"buffer":0,
			"byteLength":307200,
			"byteOffset":5220096,
			"target":34963
		},
		{
			"buffer":0,
			"byteLength":5400,
			"byteOffset":5527296,
			"target":34962
		},
		{
			"buffer":0,
			"byteLength":5400,
			"byteOffset":5532696,
			"target":34962
		},
		{
			"buffer":0,
			"byteLength":3600,
			"byteOffset":5538096,
			"target":34962
		},
		{
			"buffer":0,
			"byteLength":4440,
			"byteOffset":5541696,
			"target":34963
		}
	],
	"samplers":[
		{
			"magFilter":9729,
			"minFilter":9987
		}
	],
	"buffers":[
		{
			"byteLength":5546136,
			"uri":"untitled.bin"
		}
	]
}
