<?xml version="1.0" encoding="UTF-8"?>
<!DOCTYPE svg PUBLIC "-//W3C//DTD SVG 1.1//EN" "http://www.w3.org/Graphics/SVG/1.1/DTD/svg11.dtd">
<!-- Creator: CorelDRAW -->
<svg xmlns="http://www.w3.org/2000/svg" xml:space="preserve" width="231.069mm" height="207.081mm" version="1.1" style="shape-rendering:geometricPrecision; text-rendering:geometricPrecision; image-rendering:optimizeQuality; fill-rule:evenodd; clip-rule:evenodd"
viewBox="0 0 23106.94 20708.06"
 xmlns:xlink="http://www.w3.org/1999/xlink"
 xmlns:xodm="http://www.corel.com/coreldraw/odm/2003">
 <defs>
  <style type="text/css">
   <![CDATA[
    .fil2 {fill:#FEFEFE}
    .fil0 {fill:#207D8B}
    .fil1 {fill:white}
    .fil3 {fill:#FEFEFE;fill-rule:nonzero}
   ]]>
  </style>
 </defs>
 <g id="Layer_x0020_1">
  <metadata id="CorelCorpID_0Corel-Layer"/>
  <path class="fil0" d="M18305.89 6995.98c138.83,-68.44 287.75,-114.64 443.67,-124.55 216.81,-13.78 430.15,48.87 596.87,190.13 167.45,141.88 263.54,342.47 282.62,559.96 14.91,169.78 -15.72,336.18 -78.81,491.61 141.15,-27.44 282.02,-56.22 422.71,-85.94 153.03,-32.35 305.85,-65.73 458.35,-100.55 194.4,-44.37 389.51,-86.7 585.17,-125.18 125.69,-24.71 252.37,-48.3 379.15,-66.65 85.27,-12.33 204.93,-29.71 289.92,-17.57 93.29,13.31 134.98,79 152.03,162.72 95.02,466.44 103.25,915.67 3.08,1383.24 -7.95,37.03 -16.86,73.83 -26.55,110.4 177.75,91.86 334.26,221.6 458.44,379.91 204.51,260.73 310.15,587.18 283.05,914.69 240.89,95.43 442.12,291.8 506.3,548.49 104.36,417.44 -115.96,802.91 -503.43,967.58 42.06,302.55 -14.48,610.36 -190.58,866.28 -144.65,210.2 -346.16,355.27 -575.4,451.13 158.43,540.46 147.22,1035.27 76.96,1608.96 -7.39,60.32 -17.91,121.31 -36.83,179.19 -38.69,118.32 -122.28,223.42 -259.18,215.13 -327.86,-19.85 -624.67,-62.74 -945.1,-133.35 -215.58,-47.52 -432.14,-90.47 -649.43,-129.36 -142.46,-25.52 -285.21,-49.33 -428.22,-71.54 75.83,182.7 112.07,378.45 84.69,577.54 -22.65,164.69 -93.55,337.64 -206.16,461.5 -276.36,326.26 -739.62,376.12 -1113.82,200.22 -14.53,89.78 -30.51,179.34 -47.8,268.66 -84.57,436.91 -247.56,869.58 -439.1,1270.35 -130.22,272.47 -298.81,601.58 -494.94,830.42 -336.72,392.85 -701.54,723.41 -1147.24,989.37 -646.16,385.6 -1378.36,591.96 -2119.61,694.69 -830.85,115.15 -1665.24,209.32 -2505.18,209.32 -839.95,0 -1674.34,-94.17 -2505.19,-209.32 -741.25,-102.73 -1473.46,-309.09 -2119.61,-694.69 -445.7,-265.96 -810.52,-596.52 -1147.24,-989.37 -196.13,-228.84 -364.72,-557.95 -494.94,-830.42 -191.55,-400.77 -354.54,-833.44 -439.1,-1270.35 -17.29,-89.32 -33.27,-178.88 -47.8,-268.66 -374.2,175.9 -837.46,126.04 -1113.82,-200.22 -112.61,-123.86 -183.5,-296.81 -206.16,-461.5 -27.39,-199.09 8.86,-394.84 84.69,-577.54 -143,22.21 -285.77,46.02 -428.22,71.54 -217.28,38.89 -433.85,81.84 -649.43,129.36 -320.42,70.61 -617.24,113.5 -945.11,133.35 -136.88,8.29 -220.48,-96.81 -259.16,-215.13 -18.93,-57.88 -29.45,-118.87 -36.83,-179.19 -70.27,-573.69 -81.48,-1068.5 76.94,-1608.96 -229.23,-95.86 -430.74,-240.93 -575.39,-451.13 -176.1,-255.92 -232.64,-563.73 -190.58,-866.28 -387.47,-164.67 -607.79,-550.14 -503.43,-967.58 64.17,-256.69 265.42,-453.06 506.3,-548.49 -27.1,-327.51 78.54,-653.96 283.04,-914.69 124.19,-158.31 280.71,-288.05 458.45,-379.91 -9.69,-36.57 -18.61,-73.37 -26.55,-110.4 -100.17,-467.57 -91.94,-916.8 3.08,-1383.24 17.06,-83.72 58.74,-149.41 152.03,-162.72 84.99,-12.14 204.65,5.24 289.92,17.57 126.78,18.35 253.46,41.94 379.15,66.65 195.65,38.48 390.77,80.81 585.17,125.18 152.5,34.82 305.32,68.2 458.35,100.55 140.68,29.72 281.57,58.5 422.71,85.94 -63.09,-155.43 -93.72,-321.83 -78.81,-491.61 19.08,-217.49 115.17,-418.08 282.62,-559.96 166.72,-141.26 380.05,-203.91 596.86,-190.13 155.93,9.91 304.85,56.11 443.69,124.55 127.74,-166.09 312.44,-272.7 528.61,-308.19 106.69,-17.5 215.43,-16.91 322.77,-4.2 96.04,-265.61 300.03,-456.22 572.23,-536.2 130.31,-38.31 266.4,-48.5 401.47,-40.61 108.6,-212.64 292.52,-368.92 522.24,-455.07 241.42,-90.53 522.48,-108.03 782.41,-77.56 31.5,-39.66 65.8,-77.12 102.65,-111.47 300.97,-280.6 697.55,-331.18 1085.56,-266.25 40.45,-29.4 82.92,-55.98 126.95,-79.65 -45.67,-222.78 -68.39,-450.37 -88.59,-676.47 -20.59,-230.73 65.28,-451.95 226.28,-616.03 156.86,-159.86 373.56,-253.76 598,-253.76l3127.58 0c224.43,0 441.13,93.9 597.99,253.76 161,164.08 246.87,385.3 226.28,616.03 -20.2,226.1 -42.91,453.69 -88.59,676.47 44.04,23.67 86.5,50.25 126.96,79.65 388.01,-64.93 784.57,-14.35 1085.55,266.25 36.84,34.35 71.15,71.81 102.64,111.47 259.93,-30.47 541,-12.97 782.42,77.56 229.71,86.15 413.64,242.43 522.23,455.07 135.08,-7.89 271.17,2.3 401.49,40.61 272.2,79.98 476.18,270.59 572.22,536.2 107.34,-12.71 216.08,-13.3 322.77,4.2 216.17,35.49 400.87,142.1 528.62,308.19z"/>
  <path class="fil1" d="M11561.52 20502.78c-833.16,0 -1657.72,-93.49 -2481.86,-207.7 -718.41,-99.58 -1429.5,-298.54 -2055.83,-672.29 -433.63,-258.77 -778.35,-572.58 -1105.28,-954.02 -177.68,-207.31 -353.18,-547.36 -470.63,-793.1 -184.05,-385.09 -344.36,-809.76 -425.57,-1229.34 -34.53,-178.4 -62.65,-351.78 -84.9,-524.66 -57.1,49.49 -117.59,92.45 -182.83,125.08 -309.28,154.64 -702.98,124.87 -933.03,-149.19 -91.01,-98.89 -147.62,-242.39 -165.52,-372.48 -27.71,-201.46 23.61,-398.51 113.77,-577.24 77.52,-153.61 176.03,-232.94 316.68,-337.32 101.84,-75.59 190.88,-111.99 200,-125 -17.21,2.39 -137.76,33.97 -250,100.01 -232.89,137 -148.33,165.28 -418.61,206.21 -168.3,25.52 -336.31,53.18 -503.75,83.17 -219.68,39.32 -438.51,82.74 -656.04,130.68 -326.47,71.95 -575.33,108.88 -918.81,129.68 -84.16,5.11 -109.63,-185.38 -116.98,-245.3 -79.05,-645.54 -74.82,-1135.14 120.18,-1692.31 -256.03,-78.93 -490.54,-215.65 -647.3,-443.47 -169.14,-245.79 -207.67,-547.07 -146.77,-834.92 3.44,-16.26 7.36,-32.24 11.72,-47.97 -43.04,-11.49 -83.71,-24.74 -120.44,-39.85 -315.12,-129.71 -498.99,-432.19 -413.66,-773.54 56.52,-226.02 253.06,-391.17 470.98,-454.62 18.93,-5.51 38.88,-10.66 59.58,-15.46 -70.07,-326.93 20.29,-665.07 227.62,-929.4 139.44,-177.75 323.17,-312.19 529.51,-390.34 -25.07,-78.73 -47.54,-158.44 -65.13,-240.51 -116.55,-543.97 -62.1,-992.05 3.41,-1313.68 3.45,-16.93 4.17,-27.62 9.48,-28.38 175,-24.99 1060.21,176.69 1192.39,206.87 153.95,35.14 307.96,68.76 461.03,101.12 175.28,37.05 354.27,73.34 535.51,107.59 259.5,49.08 380.46,207.55 522.44,263.47 -161.37,-154.04 -262.75,-176.02 -381.93,-389.43 -91.83,-164.47 -144.37,-348.07 -127.62,-538.75 32.46,-369.79 329.55,-618.8 699.35,-595.31 180.96,11.5 354.45,82.17 513.68,183.17 94.21,-201.08 270.19,-331.47 496.93,-368.7 135,-22.15 278.28,-9.76 419.4,21.73 7.46,-42.42 17.69,-83.44 30.91,-122.22 75.55,-221.76 240.02,-378.44 465.08,-444.58 146.43,-43.02 305,-43.95 461.13,-22.24 76.06,-224.94 244.13,-391.02 474.35,-477.34 236.96,-88.87 531.39,-99.89 800.64,-53.86 41.01,-63.75 89.01,-121.87 140.66,-170.02 279.88,-260.94 658.89,-282.95 1014.06,-209.33 82.34,-70.31 177.44,-125.49 279.06,-164.08 -66.17,-259.81 -93.45,-538.23 -115.8,-788.42 -33.22,-372.06 290.35,-684.67 654.95,-684.67l3127.58 0c364.59,0 688.16,312.61 654.94,684.67 -22.35,250.19 -49.63,528.61 -115.79,788.42 101.61,38.59 196.71,93.77 279.05,164.08 355.17,-73.62 734.18,-51.61 1014.06,209.33 51.65,48.15 99.65,106.27 140.66,170.02 269.25,-46.03 563.68,-35.01 800.64,53.86 230.22,86.32 398.3,252.4 474.34,477.34 156.14,-21.71 314.71,-20.78 461.13,22.24 225.07,66.14 389.53,222.82 465.1,444.58 13.2,38.78 23.44,79.8 30.9,122.22 141.11,-31.49 284.4,-43.88 419.4,-21.73 226.74,37.23 402.72,167.62 496.94,368.7 159.22,-101 332.7,-171.67 513.67,-183.17 369.79,-23.49 666.89,225.52 699.36,595.31 16.74,190.68 -35.8,374.28 -127.64,538.75 -119.16,213.41 -220.56,235.39 -381.92,389.43 141.98,-55.92 262.94,-214.39 522.44,-263.47 181.24,-34.25 360.22,-70.54 535.52,-107.59 153.06,-32.36 307.06,-65.98 461.02,-101.12 132.18,-30.18 1017.39,-231.86 1192.39,-206.87 5.31,0.76 6.03,11.45 9.48,28.38 65.52,321.63 119.96,769.71 3.41,1313.68 -17.59,82.07 -40.06,161.78 -65.13,240.51 206.34,78.15 390.07,212.59 529.51,390.34 207.33,264.33 297.69,602.47 227.61,929.4 20.71,4.8 40.66,9.95 59.59,15.46 217.92,63.45 414.46,228.6 470.97,454.62 85.33,341.35 -98.53,643.83 -413.66,773.54 -36.72,15.11 -77.39,28.36 -120.43,39.85 4.36,15.73 8.28,31.71 11.72,47.97 60.91,287.85 22.37,589.13 -146.76,834.92 -156.77,227.82 -391.28,364.54 -647.32,443.47 195.02,557.17 199.25,1046.77 120.19,1692.31 -7.35,59.92 -32.82,250.41 -116.99,245.3 -343.46,-20.8 -592.33,-57.73 -918.81,-129.68 -217.53,-47.94 -436.35,-91.36 -656.03,-130.68 -167.44,-29.99 -335.44,-57.65 -503.74,-83.17 -270.29,-40.93 -185.73,-69.21 -418.62,-206.21 -112.24,-66.04 -232.79,-97.62 -250,-100.01 9.12,13.01 98.16,49.41 200,125 140.65,104.38 239.17,183.71 316.68,337.32 90.15,178.73 141.48,375.78 113.77,577.24 -17.89,130.09 -74.51,273.59 -165.52,372.48 -230.05,274.06 -623.75,303.83 -933.03,149.19 -65.24,-32.63 -125.72,-75.59 -182.83,-125.08 -22.24,172.88 -50.36,346.26 -84.89,524.66 -81.22,419.58 -241.53,844.25 -425.57,1229.34 -117.45,245.74 -292.95,585.79 -470.64,793.1 -326.93,381.44 -671.64,695.25 -1105.29,954.02 -626.32,373.75 -1337.41,572.71 -2055.83,672.29 -824.13,114.21 -1648.7,207.7 -2481.84,207.7z"/>
  <path class="fil0" d="M9997.73 4060.52l1563.79 0 1563.79 0c184.92,0 352.64,152.04 336.2,336.22 -22.39,250.74 -60.9,756.79 -233.13,1076.97 405.41,-53.44 608.13,261.81 608.13,261.81 975,-299.99 1075.01,400 1075.01,400 0,0 475,-174.99 874.99,-25 400,150 300.01,575.01 300.01,575.01 1225,-400 900,650 900,650 1324.99,-600 975,575 975,575 1289.67,-1524.17 2006.07,557.26 -451.92,931.39 -86,13.07 -127.54,19.77 -125.93,19.74 37.71,-0.48 46.88,-1.24 133.85,-3.6 1641.31,-44.8 3894,-672.54 3894,-672.54 14.57,291.43 24.99,625.02 -50.01,975 -48.53,226.55 -175.12,550.01 -175,550.01 575,0 1009.64,562.75 850.01,1074.99 -43.23,138.71 -154.76,267.66 -150.01,275 3.7,5.71 39.91,3.57 84.21,3.41 104.81,-0.36 269.57,18.58 365.79,46.59 114.88,33.45 223.23,117.93 250,225.01 50.01,200 -68.2,335.46 -224.99,400 -140.09,57.64 -375.96,75 -475.01,75 -50,0 -61.99,0.54 -2.55,67.67 10.75,12.14 22.75,25.64 35.32,40.51 53.64,63.4 117.89,151.78 142.24,266.82 76.3,360.51 -27.45,880.52 -925,975 316.65,668.47 336,1160.19 246.55,1890.54 -1129.13,-301.97 -2344.68,-474.49 -3592.03,-575.38 -2.21,20.7 -4.52,48.24 -4.52,84.83 0,0 750,0 1150,525.01 400,525 125,800 125,800 0,0 -200,249.99 -550.01,74.99 -186.9,-93.45 -424.61,-443.05 -584.33,-611.12 -3.8,-4 9.33,461.13 -140.66,1236.13 -152.75,789.12 -639.24,1658.27 -825.01,1875 -497.25,580.15 -1252.17,1280.56 -2962.07,1517.57 -1969.11,272.89 -2906.73,272.89 -4875.84,0 -1709.9,-237.01 -2464.82,-937.42 -2962.08,-1517.57 -185.76,-216.73 -672.27,-1085.88 -825,-1875 -150,-775 -136.87,-1240.13 -140.67,-1236.13 -159.71,168.07 -397.43,517.67 -584.33,611.12 -350.01,175 -550.01,-74.99 -550.01,-74.99 0,0 -274.99,-275 125,-800 400,-525.01 1150.01,-525.01 1150.01,-525.01 0,-36.59 -2.33,-64.13 -4.53,-84.83 -1247.36,100.85 -2462.88,273.42 -3592.03,575.38 -89.45,-730.35 -70.1,-1222.07 246.55,-1890.54 -897.55,-94.48 -1001.3,-614.49 -924.99,-975 24.33,-115.04 88.6,-203.42 142.23,-266.82 12.57,-14.87 24.57,-28.37 35.33,-40.51 59.43,-67.13 47.43,-67.67 -2.56,-67.67 -99.04,0 -334.92,-17.36 -475.01,-75 -156.8,-64.54 -274.99,-200 -224.99,-400 26.76,-107.08 135.12,-191.56 250,-225.01 96.22,-28.01 260.98,-46.95 365.79,-46.59 44.3,0.16 80.5,2.3 84.21,-3.41 4.75,-7.34 -106.78,-136.29 -150.01,-275 -159.63,-512.24 275,-1074.99 850,-1074.99 0.12,0 -126.46,-323.46 -174.99,-550.01 -75,-349.98 -64.57,-683.57 -50,-975 0,0 2252.68,627.74 3894,672.54 86.97,2.36 96.12,3.12 133.84,3.6 1.61,0.03 -39.93,-6.67 -125.92,-19.74 -2458,-374.13 -1741.59,-2455.56 -451.93,-931.39 0,0 -349.99,-1175 975,-575 0,0 -325,-1050 900,-650 0,0 -99.99,-425.01 300.01,-575.01 400,-149.99 874.99,25 874.99,25 0,0 100.01,-699.99 1075.01,-400 0,0 202.72,-315.25 608.12,-261.81 -172.22,-320.18 -210.72,-826.23 -233.12,-1076.97 -16.44,-184.18 151.28,-336.22 336.21,-336.22z"/>
  <path class="fil2" d="M11255.86 6013.96c157.98,-62.3 275.64,-216.52 298.69,-403.44l4.13 0 2.84 0 2.83 0 4.13 0c23.05,186.92 140.72,341.14 298.69,403.44 -157.97,62.31 -275.64,216.53 -298.69,403.44l-4.13 0 -2.83 0 -2.84 0 -4.13 0c-23.05,-186.91 -140.71,-341.13 -298.69,-403.44zm493.54 310.19c187.08,-338.59 587.12,-133.38 449.4,81.5 -16.86,26.3 -58.64,40.38 -110.34,54.25 -146.89,39.43 -180.96,76.05 -277.28,158.51 -39.98,34.24 -94.28,14.64 -99.67,-32.89 -11.79,-104.01 -6.84,-180.42 37.89,-261.37zm-375.77 0c-187.08,-338.59 -587.11,-133.38 -449.4,81.5 16.86,26.3 58.64,40.38 110.34,54.25 146.88,39.43 180.96,76.05 277.28,158.51 39.98,34.24 94.27,14.64 99.67,-32.89 11.79,-104.01 6.84,-180.42 -37.89,-261.37z"/>
  <path class="fil2" d="M11136.51 9185.52c-1379.3,-48.4 -2746.93,-97.97 -4123.48,-175.33 -64.08,-3.58 -55.86,6.99 -31.91,-29.11 44.95,-67.77 93.25,-220.86 84.06,-252.58 14.23,2.69 28.48,5.35 42.73,7.97 1321.36,244.51 2691.02,317.18 4028.6,449.05z"/>
  <path class="fil2" d="M11986.51 9185.52c1379.32,-48.4 2746.94,-97.97 4123.49,-175.33 64.08,-3.58 55.87,6.99 31.91,-29.11 -44.96,-67.77 -93.24,-220.86 -84.05,-252.58 -14.25,2.69 -28.48,5.35 -42.74,7.97 -1321.36,244.51 -2691.02,317.18 -4028.61,449.05z"/>
  <path class="fil2" d="M13236.52 9260.53c125.3,-6.09 1160.17,-48.66 1586.48,-72.06 1104.36,-60.2 2210.41,-144.79 3311.44,-249.54 746.93,-71.05 1499.31,-210.03 2231.13,-372.83 310.38,-69.06 624.11,-142.72 932.5,-225.21 9.07,267.12 3.03,528.8 -53.89,794.49 -49.82,232.45 -148.27,459.7 -216.91,688.45 270.74,-32.98 553.42,70.81 734.09,270.57 138.26,152.86 204.22,345.73 182.09,551.89 -26.76,249.12 -186.19,470.17 -481.93,439.24 275,-200 257.48,-535.03 174.99,-700 -150,-300.01 -398.48,-325 -769.42,-325l-180.57 0c0,0 375,-975 349.99,-1425 0,0 -1550.01,425 -4224.99,575 -1399.54,78.46 -2306.38,81.66 -2852.96,66.89 -498.1,-13.47 -722.04,-16.89 -722.04,-16.89zm-1675 10802.26c-812.46,0 -1617.79,-92.16 -2421.46,-203.55 -658.64,-91.28 -1316.23,-271.46 -1890.75,-614.28 -392.34,-234.12 -701,-517.55 -996.69,-862.53 -63.76,-74.4 -123.7,-172.74 -173.83,-256.8 -84.87,-142.3 -162.46,-290.23 -233.89,-439.7 -167.64,-350.76 -316.6,-741 -390.57,-1123.2 -57.21,-295.53 -100.81,-596.08 -123.31,-896.36 -5.94,-79.25 -10.36,-158.64 -12.74,-238.09 -1.42,-47.91 -2.9,-95.68 -4.73,-143.52 -0.61,-16.39 223.69,-107.81 222.97,-124.23 1.67,22.32 3.39,44.58 5.15,66.72 191.33,2399.21 944.37,3912.37 3598.39,4354.73 803.67,111.38 1609,203.54 2421.46,203.54 812.45,0 1617.78,-92.16 2421.45,-203.54 2654.02,-442.36 3407.06,-1955.52 3598.39,-4354.73 1.76,-22.14 3.48,-44.4 5.16,-66.72 -0.73,16.42 223.58,107.84 222.96,124.23 -1.84,47.84 -3.31,95.61 -4.74,143.52 -2.37,79.45 -6.79,158.84 -12.72,238.09 -22.51,300.28 -66.11,600.83 -123.31,896.36 -73.98,382.2 -222.94,772.44 -390.58,1123.2 -71.44,149.47 -149.03,297.4 -233.89,439.7 -50.13,84.06 -110.07,182.4 -173.83,256.8 -295.7,344.98 -604.35,628.41 -996.69,862.53 -574.52,342.82 -1232.11,523 -1890.75,614.28 -803.67,111.39 -1609,203.55 -2421.45,203.55zm4923.86 -11398.43c-77.43,8.06 -298.06,11.09 -323.86,96.17 -19.57,64.52 63.32,199.44 125,224.99 58.73,24.35 158.39,2.36 236.29,-5.76 68.58,-7.15 118.05,-69.05 109.93,-137.53l-7.89 -66.39c-8.12,-68.47 -70.89,-118.62 -139.47,-111.48zm-10123.86 7371.16c0,0 1924.27,-371.67 5200,-358.49 3275.71,-13.18 5199.99,358.49 5199.99,358.49l0 161.55c-1865.9,-283.95 -3354.79,-371.58 -5199.99,-403.4 -1845.21,31.82 -3334.1,119.45 -5200,403.4l0 -161.55zm9811.78 1704.86l-448.36 -156.85 -66.04 188.79 448.36 156.83 66.04 -188.77zm214.56 -414.19l-456.34 -131.83 -55.51 192.14 456.35 131.83 55.5 -192.14zm161.43 -434.76l-461.07 -114.23 -48.09 194.13 461.06 114.23 48.1 -194.13zm135.59 -439.29l-470.32 -66.61 -28.05 198.02 470.31 66.62 28.06 -198.03zm-5448.36 2758.38c105.52,-211.03 171.02,-191.53 -10.05,-323.23 -87.98,-63.99 -224.55,-131.49 -370.91,-183.38 -388.05,-137.59 -1077.3,-93.42 -1444.04,56.61l-280.84 93.61c-98.52,32.84 -319.15,-268.6 -232.77,-312.93 201.68,-103.5 1113.47,-102.12 1391.92,-84.56 342.51,21.61 667.77,93.9 982.92,305.06 43.82,29.35 89.86,62.15 138.77,98.83 0,0 69.19,-224.79 150,-329.23 80.8,104.44 149.99,329.23 149.99,329.23 48.92,-36.68 94.95,-69.48 138.78,-98.83 315.14,-211.16 640.4,-283.45 982.92,-305.06 278.44,-17.56 1190.23,-18.94 1391.91,84.56 86.38,44.33 -134.25,345.77 -232.76,312.93l-280.85 -93.61c-366.74,-150.03 -1055.98,-194.2 -1444.04,-56.61 -146.36,51.89 -282.93,119.39 -370.91,183.38 -181.07,131.7 -115.57,112.2 -10.04,323.23l-200 0 -125 303.58 -125 -303.58 -200 0zm4499.99 -874.99c-1808.49,-507.45 -6541.52,-507.45 -8350,0l-15.33 86.11c2192.87,-480.5 6187.81,-480.5 8380.67,0l-15.34 -86.11zm-1047.59 349.99l-179.37 0c-77.49,0 -98.03,10.38 -98.03,100.01 0,99.99 385.77,214.51 379.54,-48.12 -1.58,-66.93 -37.28,-51.89 -102.14,-51.89zm-4168.61 471.54c252.9,-19.19 525.41,-243.56 266.21,-271.54 -171.95,-18.56 -478.15,15.95 -500.01,75 -59.4,160.53 107.27,206.15 233.8,196.54zm-2086.2 -471.54l179.38 0c77.48,0 98.03,10.38 98.03,100.01 0,99.99 -385.78,214.51 -379.55,-48.12 1.58,-66.93 37.27,-51.89 102.14,-51.89zm4168.61 471.54c-252.9,-19.19 -525.4,-243.56 -266.2,-271.54 171.94,-18.56 478.14,15.95 500,75 59.41,160.53 -107.27,206.15 -233.8,196.54zm-5652.99 -1416.68l448.37 -156.85 66.04 188.79 -448.37 156.83 -66.04 -188.77zm-214.56 -414.19l456.34 -131.83 55.51 192.14 -456.35 131.83 -55.5 -192.14zm-161.42 -434.76l461.06 -114.23 48.09 194.13 -461.06 114.23 -48.09 -194.13zm-135.59 -439.29l470.31 -66.61 28.05 198.02 -470.31 66.62 -28.05 -198.03zm4455.64 -8593.6c-274.99,-430.84 -946.31,-1267.55 -1407.28,-1498.01 513.99,-51.4 1361.88,115.77 1735.06,499.17 72.98,74.98 137.55,165.24 189.94,275.83 25,-125 65.32,-187.61 150,-244.86 84.67,57.25 125,119.86 149.99,244.86 52.38,-110.59 116.96,-200.85 189.95,-275.83 373.17,-383.4 1221.06,-550.57 1735.06,-499.17 -460.99,230.46 -1132.3,1067.17 -1407.28,1498.01 7.78,-335.53 507.27,-1173.01 507.27,-1173.01 -399.99,24.99 -697.67,451.21 -779.91,740.55 -25.45,89.55 -39.48,193.62 -52.78,345.12 -24.72,281.7 -17.3,614.32 -17.3,614.32 -179.5,-256.42 -250.01,-375 -325,-711.88 -75,336.88 -145.51,455.46 -325,711.88 0,0 7.4,-332.62 -17.31,-614.32 -13.29,-151.5 -27.32,-255.57 -52.78,-345.12 -82.24,-289.34 -379.91,-715.56 -779.91,-740.55 0,0 499.49,837.48 507.28,1173.01zm-4256.15 805.82c77.43,8.06 298.06,11.09 323.87,96.17 19.55,64.52 -63.32,199.44 -125,224.99 -58.74,24.35 -158.39,2.36 -236.3,-5.76 -68.57,-7.15 -118.05,-69.05 -109.93,-137.53l7.88 -66.39c8.13,-68.47 70.9,-118.62 139.48,-111.48zm5448.86 -53.83c393.16,-501.89 1020.3,-1390.63 1500,-1750 131.06,-98.19 295.65,-199.24 465.68,-281.96 573,-278.72 1359.34,-93.04 1434.32,531.95 104.64,871.94 -975,1525.01 -2130.96,1372.37 -39.13,-5.16 314.65,-153.03 355.23,-167.09 435.61,-150.79 1081.87,-303.29 1100.73,-480.27 21.73,-203.93 -416.25,-201.05 -524.99,-175 -663.25,158.82 -1067.93,846 -2027.37,939.66 -105.87,10.32 -172.64,10.34 -172.64,10.34zm3250 -275.01c0,0 359.57,-248.64 574.83,-509.67 29.21,-35.42 41.11,-40.32 117.82,-40.32l232.35 0c190.84,0 -77.44,307.87 -325,424.99 -247.24,116.98 -454.26,114.59 -600,125zm1425 -775c0,0 125,-200 -50,-349.99 -286.61,-245.67 -729.4,-148.11 -918.06,169.77 -20.67,34.86 -11.01,37.01 18.07,30.22 15.98,-3.73 124.99,-62.19 249.99,-62.19 166.09,0 175,87.19 125,187.19 0,0 378.75,-57.09 575,25zm-224.99 800.01c0,0 202,-60.61 388.1,-308.91 51.58,-68.85 72.81,-170.91 133.59,-206.52 158.36,-92.77 386.13,-120.97 541.09,-103.73 73.59,8.18 101.57,73.48 37.22,144.15 -96.24,105.69 -309.36,303.13 -1100,475.01zm-3741.1 -160.91c0,0 441.11,-639.11 691.1,-864.09 291.51,-262.36 765.66,-585.81 1199.99,-575.01 639.64,15.91 468.77,713.02 325,850 -145.21,-207.44 -397.43,-274.67 -647.22,-253.44 -458.34,38.95 -1164.59,587.99 -1568.87,842.54zm-1758.9 410.91c-393.15,-501.89 -1020.29,-1390.63 -1500,-1750 -131.06,-98.19 -295.65,-199.24 -465.69,-281.96 -572.99,-278.72 -1359.33,-93.04 -1434.32,531.95 -104.63,871.94 975,1525.01 2130.98,1372.37 39.13,-5.16 -314.65,-153.03 -355.24,-167.09 -435.61,-150.79 -1081.87,-303.29 -1100.73,-480.27 -21.74,-203.93 416.25,-201.05 525,-175 663.25,158.82 1067.91,846 2027.36,939.66 105.88,10.32 172.64,10.34 172.64,10.34zm-3250 -275.01c0,0 -359.57,-248.64 -574.83,-509.67 -29.21,-35.42 -41.11,-40.32 -117.83,-40.32l-232.35 0c-190.83,0 77.45,307.87 325,424.99 247.25,116.98 454.27,114.59 600.01,125zm-1425 -775c0,0 -125,-200 49.99,-349.99 286.62,-245.67 729.4,-148.11 918.07,169.77 20.67,34.86 11.01,37.01 -18.07,30.22 -15.98,-3.73 -125,-62.19 -250,-62.19 -166.08,0 -174.99,87.19 -124.99,187.19 0,0 -378.75,-57.09 -575,25zm224.99 800.01c0,0 -201.99,-60.61 -388.1,-308.91 -51.58,-68.85 -72.81,-170.91 -133.59,-206.52 -158.36,-92.77 -386.13,-120.97 -541.1,-103.73 -73.58,8.18 -101.56,73.48 -37.21,144.15 96.23,105.69 309.35,303.13 1100,475.01zm3741.1 -160.91c0,0 -441.1,-639.11 -691.1,-864.09 -291.51,-262.36 -765.66,-585.81 -1199.99,-575.01 -639.64,15.91 -468.78,713.02 -325,850 145.21,-207.44 397.42,-274.67 647.22,-253.44 458.34,38.95 1164.6,587.99 1568.87,842.54zm-441.1 1060.91c-125.3,-6.09 -1160.17,-48.66 -1586.47,-72.06 -1104.37,-60.2 -2210.41,-144.79 -3311.44,-249.54 -746.94,-71.05 -1499.32,-210.03 -2231.14,-372.83 -310.38,-69.06 -624.11,-142.72 -932.49,-225.21 -9.08,267.12 -3.04,528.8 53.89,794.49 49.81,232.45 148.25,459.7 216.89,688.45 -270.73,-32.98 -553.42,70.81 -734.08,270.57 -138.25,152.86 -204.22,345.73 -182.09,551.89 26.76,249.12 186.2,470.17 481.93,439.24 -274.99,-200 -257.49,-535.03 -175,-700 150.01,-300.01 398.48,-325 769.43,-325l180.57 0c0,0 -375,-975 -349.99,-1425 0,0 1550.01,425 4225,575 1399.54,78.46 2306.38,81.66 2852.95,66.89 498.1,-13.47 722.04,-16.89 722.04,-16.89zm1675.01 4956.65c-2174.07,29.82 -4421.17,-36.55 -6575.01,168.35 -746.92,71.05 -1497.23,160.88 -2229.05,323.68 -310.38,69.06 -624.11,142.72 -932.49,225.21 -1.74,-50.97 -2.92,-116.31 -3.31,-190.5 -4.67,-910.55 114.85,-1058.39 339.86,-1708.39 -270.75,32.98 -619.2,-54.89 -799.85,-254.62 -138.24,-152.85 -204.22,-345.73 -182.09,-551.89 26.76,-249.12 186.2,-470.18 481.93,-439.24 -274.99,200 -257.47,535.04 -175,700.01 150.01,299.98 398.53,331.17 769.43,325l255.57 -4.27c0,0 -244.16,468.83 -349.99,925.01 -83.57,360.2 -111.03,701.44 -100.01,900 1217.19,-428.03 3749.82,-493.3 6075,-500 1282.59,-3.69 2480.54,-5.57 3425.01,7.84 944.46,-13.41 2142.41,-11.53 3425,-7.84 2325.18,6.7 4857.81,71.97 6075,500 11.03,-198.56 -16.43,-539.8 -100,-900 -105.84,-456.18 -350,-925.01 -350,-925.01l255.57 4.27c370.9,6.17 619.42,-25.02 769.42,-325 82.48,-164.97 100.01,-500.01 -174.99,-700.01 295.74,-30.94 455.17,190.12 481.93,439.24 22.13,206.16 -43.85,399.04 -182.09,551.89 -180.65,199.73 -529.1,287.6 -799.84,254.62 224.99,650 344.52,797.84 339.85,1708.39 -0.39,74.19 -1.57,139.53 -3.3,190.5 -308.39,-82.49 -622.12,-156.15 -932.5,-225.21 -731.82,-162.8 -1482.13,-252.63 -2229.06,-323.68 -2153.83,-204.9 -4400.93,-138.53 -6574.99,-168.35zm10906.94 -2779.53l0.08 -2.3c0,-129.86 -284.64,-249.83 -405.67,-249.83l-526.35 0c-225.01,0 -250.01,0 -150,-149.31 18.41,-27.49 112.68,-197.4 156.19,-274.26 29.92,-52.84 21.64,-53.53 -51.06,-39.21 -419.03,82.56 -628.53,398.74 -628.53,714.91 0,316.17 209.5,632.36 628.53,714.92 72.7,14.32 80.98,13.63 51.06,-39.22 -43.51,-76.85 -137.78,-246.76 -156.19,-274.26 -100.01,-149.3 -75.01,-149.3 150,-149.3l526.35 0c121.03,0 405.67,-119.97 405.67,-249.84l-0.08 -2.3zm-21813.89 0l-0.09 -2.3c0,-129.86 284.65,-249.83 405.67,-249.83l526.37 0c224.99,0 250,0 149.99,-149.31 -18.41,-27.49 -112.68,-197.4 -156.2,-274.26 -29.91,-52.84 -21.63,-53.53 51.08,-39.21 419.02,82.56 628.52,398.74 628.52,714.91 0,316.17 -209.5,632.36 -628.52,714.92 -72.71,14.32 -80.99,13.63 -51.08,-39.22 43.52,-76.85 137.79,-246.76 156.2,-274.26 100.01,-149.3 75,-149.3 -149.99,-149.3l-526.37 0c-121.02,0 -405.67,-119.97 -405.67,-249.84l0.09 -2.3z"/>
  <path class="fil2" d="M11561.52 14486.17l-1875 24.36c-508.33,24.99 -1016.67,49.99 -1525.01,75 -383.32,33.33 -766.67,66.66 -1149.99,99.99 -150.01,16.67 -300.01,33.33 -450,50 -8.34,-58.32 -16.68,-116.66 -25.01,-175 -83.33,75.01 -166.67,150.01 -249.99,225.01 -141.67,0 -283.33,0 -425,0 -3.87,-55.66 -7.75,-111.32 -11.62,-166.97 -121.13,38.99 -242.26,77.97 -363.39,116.96 -16.62,-89.35 -33.25,-178.71 -49.86,-268.08 2063.07,-164.93 4136.82,-129.41 6124.87,-166.28 1988.04,36.87 4061.78,1.35 6124.86,166.28 -16.62,89.37 -33.25,178.73 -49.86,268.08 -121.13,-38.99 -242.25,-77.97 -363.39,-116.96 -3.87,55.65 -7.74,111.31 -11.61,166.97 -141.68,0 -283.33,0 -425.01,0 -83.33,-75 -166.67,-150 -250,-225.01 -8.32,58.34 -16.66,116.68 -25,175 -149.99,-16.67 -300,-33.33 -450,-50 -383.32,-33.33 -766.66,-66.66 -1150,-99.99 -508.32,-25.01 -1016.67,-50.01 -1524.99,-75l-1875 -24.36z"/>
  <path class="fil2" d="M6271.61 15219.5l14.91 307.04c325.93,-85.87 1413.89,-170.18 2524.99,-216.02 259.59,-10.7 517.78,-20.66 775,-29.45l0 -128.27c-1105.28,12.09 -2210.37,34.31 -3314.9,66.7zm7264.9 61.58c257.39,8.8 515.64,18.74 775,29.44 1111.11,45.84 2199.07,130.15 2525,216.02l14.91 -307.04c-1104.52,-32.39 -2209.61,-54.61 -3314.91,-66.7l0 128.28z"/>
  <path class="fil3" d="M11803.15 17001.88c-21.29,-22.02 -44.52,-35.04 -64.25,-42.59 -12.52,-5.63 -23.32,-7.61 -32.34,-7.77l27.06 0.46c185.79,3.14 341.5,-134.96 344.45,-309.93 2.96,-174.98 -147.99,-318.26 -333.78,-321.4l-173.16 -2.93c106.42,1.8 190.47,152.98 187.64,320.73 -2.9,171.37 -91.8,306.99 -198.22,305.2l-110.04 -1.86c131.69,2.22 65.53,713.81 478.6,720.8 95.63,-0.2 184.45,-23.95 230.36,-71.89 -208.17,39.79 -210.91,-438.41 -356.32,-588.82zm-363.28 35.36l3.05 -180.39 3.78 -223.67 3.36 -198.42 1.83 -108.23 0.18 -10.82 -317.47 -5.36 -108.23 -1.83c59.52,1 107.23,61.35 106.22,120.87l-3.35 198.42 -3.78 223.68 -3.05 180.38 -7.13 422.09c-1.01,59.53 -50.73,118.23 -110.25,117.23l108.23 1.83 52.32 0.88 133.47 2.26 131.68 2.22 110.03 1.86c-63.13,-1.07 -109.03,-61.38 -108.02,-120.91l7.13 -422.09z"/>
  <path class="fil3" d="M12708.51 16458.84c1.73,-59.5 50.35,-117.66 113.46,-115.83l-110 -3.19 -102.78 -2.98 -162.3 -4.71 -52.3 -1.52 -108.19 -3.14c59.5,1.73 106.46,62.66 104.74,122.16l-29.72 1024.27c-1.72,59.51 -52.14,117.6 -111.65,115.87l108.2 3.14 52.3 1.52 133.44 3.87 131.64 3.82 110 3.19c-63.11,-1.83 -108.28,-62.69 -106.55,-122.2l29.71 -1024.27z"/>
  <path class="fil3" d="M10773.14 16450.27c-1.63,-59.5 43.62,-120.3 106.74,-122.03l-110.01 3.02 -102.78 2.83 -162.29 4.47 -52.3 1.43 -108.2 2.98c59.51,-1.64 109.84,56.53 111.47,116.03l28.18 1024.27c1.64,59.51 -45.41,120.36 -104.92,121.99l108.2 -2.97 52.3 -1.44 133.43 -3.67 131.64 -3.62 110.01 -3.03c-63.12,1.74 -111.65,-56.48 -113.29,-115.99l-28.18 -1024.27z"/>
  <path class="fil3" d="M13585.27 17464.5l46.49 -1057.9 0.47 -10.8 -318.99 -14.02 -0.48 10.8 -46.48 1057.9 -3.25 73.89c-2.61,59.47 -50.27,116.96 -113.35,114.19l535.25 23.52c-59.48,-2.61 -105.52,-64.22 -102.91,-123.69l3.25 -73.89zm-654.09 -1099.51l-14.97 340.61c56.42,-174.48 174.49,-313.75 357.39,-325.56l-342.42 -15.05zm742.5 32.63c177.55,27.65 290.24,175.26 325.64,355.58l14.97 -340.61 -340.61 -14.97z"/>
  <path class="fil3" d="M9663.49 16383.25c113.42,-7.3 216.48,161.4 229.47,363.03 12.64,196.21 -43.82,386.05 -219.49,493.17 185.36,-40.87 579.22,-156.62 556.13,-514.86 -13.45,-208.84 -184.47,-365.93 -382.49,-353.17l-183.62 11.83zm-76.71 15.79l-0.7 -10.8 -102.6 6.61 -162.03 10.44 -52.2 3.37 -108.02 6.96c59.41,-3.83 111.85,52.44 115.68,111.84l65.88 1022.53c3.83,59.41 -40.95,121.95 -100.36,125.77l108.02 -6.96 52.2 -3.36 133.21 -8.58 131.42 -8.47 109.81 -7.08c-63.01,4.06 -113.64,-52.33 -117.46,-111.73l-72.85 -1130.54z"/>
  <path class="fil3" d="M15019.11 17427.37c3.89,-338.55 -593.85,-528.93 -545.08,-806.95 16.93,-99.84 95.96,-148.34 181.05,-147.33l-26.93 -2.62c-193.92,-18.84 -463.57,32.9 -484.5,248.36 -32.79,337.56 598.46,574.7 572.12,845.82 -8.9,91.57 -95.74,164.7 -182.8,165.3 253.69,19.21 482.02,-110.86 486.14,-302.58zm7.64 -918.17c-25.26,17.48 -68.87,18.69 -110.17,14.67 -77.21,-7.5 -138.66,-27.97 -215.17,-42.65 170.45,36.49 277.43,222.69 292.37,367.33l32.97 -339.35zm-690.09 1114.68c-2.07,-34.64 17.1,-45.47 58.81,-83.1 37.43,-30.8 63.87,-78.99 68.92,-131.05 10.3,-105.93 -67.52,-200.49 -173.45,-210.78 -105.94,-10.29 -200.5,67.52 -210.79,173.45 -16.57,170.57 170,321.01 411.51,353.54 -100.02,-15.16 -151.83,-60.07 -155,-102.06z"/>
  <path class="fil3" d="M9112.46 17327.44c-61.21,-333.01 -684.43,-405.03 -689.99,-687.25 -2.55,-101.26 65.69,-164.04 149.4,-179.39l-26.94 2.61c-193.94,18.76 -448.64,121.33 -427.79,336.82 32.66,337.59 697.75,449.06 723.98,720.22 8.86,91.58 -62.32,180.02 -147.64,197.34 252.67,-29.88 451.77,-201.4 418.98,-390.35zm-168.89 -902.6c-21.43,22 -64,31.57 -105.31,35.56 -77.22,7.48 -141.45,-0.82 -219.36,-0.52 174.3,3.07 315.05,165.27 357.5,304.35l-32.83 -339.39zm-463.14 1226.57c-8.69,-33.61 8.05,-47.92 41.76,-92.87 30.82,-37.41 47.51,-89.78 42.47,-141.84 -10.25,-105.96 -104.79,-183.81 -210.73,-173.56 -105.95,10.25 -183.81,104.78 -173.56,210.73 16.51,170.59 228.51,282.39 471.79,267.92 -101.07,4.34 -160.55,-29.78 -171.73,-70.38z"/>
  <path class="fil3" d="M6114.46 10675.5l0 886.32c-24.22,-4.84 -62.96,-4.84 -111.4,-4.84 -29.06,0 -77.49,-4.84 -140.45,-4.84l-33.9 -4.84 -106.56 227.63c135.62,-14.53 247.01,-19.37 334.19,-19.37l58.12 0 0 125.92c-87.18,0 -203.42,9.69 -343.87,19.38l19.37 72.64c125.92,-19.37 232.48,-29.06 324.5,-29.06l0 1021.94 -324.5 280.91 1690.31 0c285.75,0 508.54,-72.65 678.06,-208.26 169.51,-145.3 256.69,-334.19 256.69,-566.67 0,-329.34 -179.2,-605.41 -489.17,-745.86 358.4,-135.62 537.6,-377.78 537.6,-721.65 0,-247.01 -101.71,-450.43 -309.97,-610.26l-29.06 -19.37 0 14.53c188.89,169.51 280.91,368.09 280.91,595.72 0,353.56 -217.94,619.94 -566.66,702.28 -53.28,-14.53 -96.87,-29.06 -135.61,-38.75l0 -24.21c372.93,-106.55 556.97,-324.5 556.97,-644.16 0,-242.16 -106.55,-435.9 -319.65,-586.04 -217.95,-154.98 -494.02,-232.47 -833.05,-232.47 -460.11,0 -881.48,125.92 -1259.25,372.93l266.38 140.45zm474.64 -174.35c164.67,-101.71 334.19,-150.15 508.55,-150.15 198.57,0 358.4,58.12 479.48,169.52 121.08,106.55 184.05,251.85 184.05,435.89 0,411.68 -290.6,610.26 -891.17,610.26l-101.71 0 0 -910.54c96.87,-67.81 208.26,-101.71 329.35,-101.71 222.79,0 387.46,87.18 508.54,266.38l67.81 38.75c-62.97,-130.77 -135.61,-222.79 -222.79,-276.07 -82.34,-53.27 -198.58,-77.49 -348.72,-77.49 -130.77,0 -261.54,29.06 -397.15,92.02l0 968.66 -38.75 0 -43.59 -4.85c-4.84,0 -19.37,0 -33.9,4.85l0 -1065.52zm0 1259.25c111.4,-9.69 184.05,-9.69 222.79,-9.69 402,0 673.22,48.44 823.36,140.46 145.3,92.02 217.95,261.54 217.95,513.39 0,397.15 -222.79,615.09 -668.37,649l-339.03 9.68 -77.5 0 0 -1104.27 193.73 -4.84c222.8,0 397.15,19.37 513.39,62.96 116.24,38.75 213.11,116.24 290.6,222.8l29.06 0c-67.81,-135.62 -164.67,-227.64 -280.91,-276.07 -116.24,-48.44 -305.13,-72.65 -566.67,-72.65 -53.27,0 -130.76,4.84 -242.16,9.69l0 1162.38 -116.24 0 0 -1302.84zm1738.74 184.04c145.3,169.52 217.95,353.56 217.95,561.83 0,363.24 -159.83,624.78 -479.49,770.08 -140.45,67.8 -377.77,101.71 -697.43,101.71l-1491.73 0 38.74 62.96 1607.98 0c353.56,0 624.78,-82.34 803.98,-256.69 188.89,-174.36 280.91,-397.15 280.91,-663.53 0,-266.39 -82.33,-464.96 -251.85,-595.73l-29.06 19.37z"/>
  <path class="fil3" d="M8955.02 10215.39l358.41 285.76 0 1007.4c-256.7,0 -421.37,121.08 -494.02,377.78 130.77,-121.09 276.07,-179.21 440.74,-179.21 9.69,0 29.06,0 53.28,4.85l0 111.39c-164.68,19.38 -295.45,67.81 -392.31,135.61l33.9 48.44c106.55,-67.81 227.64,-106.55 358.41,-121.08l0 1050.99 -358.41 276.07 2654.12 0c-140.45,-140.46 -242.16,-261.54 -305.12,-363.25 -58.12,-106.55 -111.4,-242.17 -150.15,-416.52l-29.06 53.27 -125.92 213.11c-77.49,135.61 -184.05,227.63 -314.81,271.22 -135.62,43.59 -363.25,67.81 -687.75,67.81l0 -1152.7 518.23 0 -62.96 -62.97 -513.39 0 0 1215.67 -154.99 0 0 -1327.06 649 0 305.13 397.15 0 -1021.94 -305.13 421.37 -435.89 0 0 -900.85 48.43 0c130.77,-9.69 222.79,-9.69 271.23,-9.69 169.51,0 280.91,9.69 334.18,29.06 58.12,19.37 150.14,77.49 276.07,179.2l48.43 33.91c-72.65,-121.09 -159.83,-203.42 -251.85,-247.01 -92.02,-43.59 -242.16,-62.96 -440.74,-62.96 -111.39,0 -222.79,4.84 -343.87,14.52l0 963.82 -154.99 0 0 -1089.74c169.52,-4.84 309.97,-9.69 431.06,-9.69 256.69,0 431.05,29.06 532.76,82.34 96.86,53.27 188.89,179.2 276.07,368.09l33.9 77.49c96.86,-256.69 222.79,-479.48 382.62,-678.06l38.74 -43.59 -2523.35 0zm2605.69 116.24c-169.52,203.42 -305.13,426.21 -411.68,668.37l43.59 53.28c62.96,-174.36 193.73,-392.31 382.62,-653.84l19.37 -19.38 -33.9 -48.43zm-721.65 803.99l0 1046.15 58.12 29.06 0 -1041.31 -58.12 -33.9zm997.72 2053.55c-203.42,-198.58 -348.72,-401.99 -435.9,-605.41l-77.49 -29.06c92.02,242.16 251.85,464.95 479.48,673.22l-82.33 150.14 -2586.32 0 33.91 62.96 2586.31 0 121.08 -213.1 -38.74 -38.75z"/>
  <g>
   <path class="fil2" d="M14120.37 10229.92c-92.02,53.28 -174.35,77.49 -251.85,77.49 -53.27,0 -140.45,-14.53 -256.69,-43.59 -247.01,-67.8 -460.11,-101.7 -644.16,-101.7 -285.75,0 -523.07,77.49 -702.27,232.47 -174.36,154.99 -266.38,358.41 -266.38,605.41 0,242.17 67.8,431.06 198.57,566.67 135.61,135.61 353.56,232.48 649,290.6 387.46,72.64 644.16,159.82 770.08,247 169.52,121.09 256.7,280.91 256.7,469.8 0,164.67 -58.12,300.29 -184.05,397.15 -125.92,96.87 -295.44,145.3 -503.7,145.3 -271.22,0 -484.33,-67.81 -653.84,-203.42 -164.68,-140.45 -266.38,-329.34 -295.44,-581.19l-43.59 -9.69c-75.85,260.71 -207.37,535.33 -399.09,823.88 10.91,11.15 22.01,22.3 33.29,33.42 92.84,-48.46 185.33,-72.69 273.77,-72.69 72.65,0 159.83,9.69 271.23,38.75l280.91 67.81c222.79,53.27 421.36,82.33 600.57,82.33 285.75,0 527.91,-87.18 721.65,-261.54 198.57,-179.2 295.44,-397.15 295.44,-653.84 0,-460.11 -285.76,-760.4 -852.42,-900.85l-401.99 -96.87c-402,-96.86 -600.57,-276.06 -600.57,-537.6 0,-145.3 58.12,-261.54 169.51,-353.56 111.4,-96.87 251.85,-140.46 421.37,-140.46 184.04,0 343.87,62.97 489.17,188.89 58.12,48.43 101.71,106.55 125.93,159.83 29.06,53.28 67.8,154.99 111.39,295.44l14.53 38.75 9.69 -14.53c33.9,-53.28 96.86,-198.58 193.73,-435.9 48.43,-116.24 111.39,-232.48 193.73,-343.87l-24.22 -9.69zm-2326.71 2916.18l-12.59 18.85 19.37 29.06c8.84,-5.05 17.68,-9.88 26.51,-14.49l-33.29 -33.42zm2438.11 -2838.69l-9.69 19.38 -164.67 314.81c-87.18,164.67 -150.14,300.28 -198.57,406.84l-9.69 19.37 58.12 24.22 14.53 -19.38c9.69,-24.21 72.65,-154.98 184.04,-387.46 43.59,-96.87 101.71,-198.57 164.68,-309.97l24.21 -33.9 -62.96 -33.91zm-610.25 494.02c-96.87,-208.26 -309.97,-329.34 -581.2,-329.34 -140.45,0 -256.69,38.74 -343.87,116.23 -87.18,77.5 -135.61,179.21 -135.61,300.29 0,179.2 106.55,309.97 314.81,401.99l9.69 -19.37 -19.38 -9.69c-154.98,-121.08 -237.32,-242.16 -237.32,-358.4 0,-106.55 38.75,-198.58 116.24,-266.38 77.49,-67.81 179.2,-101.71 300.28,-101.71 198.58,0 382.62,92.02 556.98,276.07l19.38 -9.69zm523.07 958.97c174.36,184.04 256.69,392.31 256.69,634.47 0,285.75 -111.39,527.92 -334.18,731.34 -217.95,198.57 -489.17,300.28 -803.99,300.28 -159.83,0 -314.81,-14.53 -455.27,-53.28l-368.09 -87.18c-121.08,-29.05 -227.63,-43.58 -324.5,-43.58 -82.33,0 -164.67,19.37 -247,58.11l29.06 67.81c72.65,-33.9 154.98,-53.28 247,-53.28 101.71,0 193.74,9.69 280.91,33.91l377.78 92.02c140.46,38.75 290.6,53.28 464.96,53.28 329.34,0 615.09,-106.56 852.41,-314.82 232.48,-213.1 348.72,-464.95 348.72,-765.24 0,-280.91 -106.55,-503.7 -324.5,-668.37l0 14.53zm-1748.43 678.06c62.97,319.66 237.33,523.07 532.77,610.25l0 -19.37c-251.85,-116.24 -406.84,-319.66 -469.8,-600.57l-62.97 9.69zm-227.63 -779.77c19.37,101.71 92.02,179.2 203.42,237.32 116.24,58.12 348.71,125.93 687.74,203.42 232.48,53.28 392.31,101.71 474.65,140.46 82.33,38.74 164.67,96.86 232.47,179.2l19.38 -9.69c-38.75,-92.02 -96.87,-164.67 -188.89,-208.26 -82.34,-48.43 -256.69,-106.55 -513.39,-169.52l-382.62 -92.02c-251.85,-62.96 -401.99,-140.45 -455.27,-232.48l-77.49 -48.43zm2232.75 -1448.14l14.53 24.21c145.3,271.23 247.01,518.24 314.81,736.18l29.06 0c9.69,-198.57 58.12,-334.18 150.15,-416.52 92.02,-87.18 237.32,-130.77 440.74,-130.77 72.64,0 150.14,4.85 227.63,14.53l0 121.08 -24.22 0 -140.45 -4.84c-184.05,0 -309.97,33.9 -387.46,111.4 -82.34,72.65 -125.93,198.57 -145.3,382.62l62.96 0c9.69,-159.83 53.28,-271.23 121.08,-334.19 67.81,-62.96 184.05,-96.87 348.72,-96.87l164.67 0 0 2353.84 -329.34 276.07 1080.05 0 -280.91 -256.7 0 -2566.94 29.06 0c72.65,-9.68 145.3,-9.68 217.95,-9.68 169.51,0 300.28,33.9 382.62,106.55 87.17,67.8 150.14,193.73 198.57,372.93l4.84 33.9 24.22 14.53 4.84 -9.68c48.44,-154.99 96.87,-276.07 154.99,-377.78l159.83 -290.6 29.06 -53.27 -2852.7 0zm2954.41 101.71l-14.53 14.53c-106.56,125.92 -222.8,358.4 -334.19,682.9l-9.69 24.22 53.28 43.59 9.69 -24.22c121.08,-319.66 232.47,-552.13 343.87,-692.59l-48.43 -48.43zm-586.04 421.36c-33.9,-72.65 -82.34,-121.08 -150.14,-145.3 -62.97,-24.21 -169.52,-38.74 -319.66,-38.74l-130.77 4.84 0 2460.39 319.66 363.25 -1138.17 0 58.11 62.96 1205.98 0 -372.93 -445.58 -9.69 -2373.21c38.75,-4.85 77.5,-9.69 111.4,-9.69 164.67,0 305.13,43.59 426.21,121.08z"/>
  </g>
  <path class="fil2" d="M4642.96 11646.88c-4.79,7.07 -15.64,0.89 -11.53,-6.74 21.17,-39.16 51.03,-66.56 82.53,-97.3 17.56,-17.1 31.71,-34.56 44.1,-53.27 -54.8,60.65 -154.62,97.05 -228.41,102.64 -4.82,0.38 -5.72,-7.2 -1.11,-8.29 96.53,-22.91 171.09,-74.63 247.99,-134.08 1.54,-1.19 3.29,-1.09 4.7,-0.42 2.71,-5.33 5.36,-10.82 7.99,-16.44 2.09,-4.48 8.68,-1.98 8.76,2.39 2.79,96.71 -107.87,141.23 -155.02,211.51zm-424.94 -374.28c-22.27,-43.69 -68.66,-54.67 -112.04,-66.29 -6.56,-1.78 -9.7,-8.41 -8.35,-14.72 11.31,-52.77 10.5,-111.13 -5.88,-162.86 -16.21,-51.32 -42.17,-77.75 -78.45,-114.59 -4.71,-4.77 -1.65,-14.91 5.86,-14.18 80.89,8.07 109.35,123.55 111.79,189.94 0.81,22.31 0.95,44.61 -2.19,66.76 -5.21,36.69 0.13,31.08 34.45,45.22 33.81,13.9 50.15,34.66 61.34,67.99 1.28,3.81 -4.72,6.35 -6.53,2.73zm-127.37 98.81c-23.84,-53.7 -82.56,-67.18 -133.95,-81.21 -6.52,-1.78 -9.75,-8.36 -8.35,-14.72 13.97,-62.88 12.95,-132.83 -6.03,-194.64 -19.29,-62.77 -49.66,-95.4 -95.94,-138.93 -4.9,-4.61 -1.5,-15.04 5.88,-14.16 96.5,11.31 128.85,152.28 131.25,230.98 0.84,27.44 0.65,55 -3.67,82.18 -5.66,35.55 -1.77,30.53 32.13,43.17 44.31,16.49 70.08,40.39 85.23,84.59 1.3,3.79 -4.9,6.45 -6.55,2.74zm-249.88 -770.17c-34.67,45.65 -60.95,99.36 -72.62,155.73 -15.07,72.76 -5.16,123.24 23.17,190.2 2.9,6.88 -3.59,16.4 -11.34,11.32 -82.38,-53.86 -50.48,-188.26 -21.87,-262.96 8.88,-23.22 20.25,-46.67 33.85,-67.5 18.33,-28.14 26.49,-25.58 2.32,-50.55 -35.93,-37.14 -56.03,-68.47 -50.69,-121.04 0.48,-4.5 7.14,-4.71 7.17,0 0.2,59.7 47.27,95.86 88.13,130.29 3.73,3.13 4.89,10.53 1.88,14.51zm99.25 -18.15c-19.74,-25.33 -27.77,-42.89 -24.08,-75.23 0.53,-4.6 6.6,-4.59 7.15,0 4.72,39.92 32.84,62.19 61.49,85.89 3.81,3.14 4.79,10.52 1.87,14.5 -54.95,75.06 -60.41,148.14 -33.8,233.95 2.19,7.07 -6.04,12.97 -12.17,9.36 -61.07,-35.64 -37.64,-130.88 -17.14,-183.75 6.33,-16.37 14.67,-33.29 24.67,-47.76 15.17,-21.95 8.57,-15.73 -7.99,-36.96zm128.37 0c-19.76,-25.33 -27.81,-42.89 -24.11,-75.23 0.53,-4.6 6.63,-4.59 7.17,0 4.73,39.92 32.83,62.19 61.48,85.89 3.81,3.14 4.81,10.52 1.87,14.5 -54.94,75.06 -60.43,148.14 -33.78,233.95 2.18,7.07 -6.07,12.97 -12.2,9.36 -61.06,-35.64 -37.62,-130.88 -17.15,-183.75 6.34,-16.37 14.68,-33.29 24.69,-47.76 15.18,-21.95 8.57,-15.73 -7.97,-36.96zm85.24 -335.51c23.63,-20.31 56.93,-39.14 70.09,-37.76 -5.26,13.1 -12.79,23.44 -3.69,34.47 9.14,11.01 38.98,13.05 43.36,28.26 -39.08,-5.32 -58.85,-7.06 -90.05,2.75 -31.21,9.83 -66.7,29.41 -66.7,29.41 0,0 23.38,-36.87 46.99,-57.13zm1401.45 1425.18c6.58,-18.09 9.86,-31.26 9.86,-31.26 0,0 26.29,-1.62 49.31,3.31 23.02,4.93 54.24,32.87 54.24,32.87 0,0 -9.86,-55.9 -47.67,-75.62 -37.8,-19.71 -73.97,-19.71 -73.97,-19.71 0,0 1.63,-23.02 -13.16,-36.17 -14.77,-13.13 -29.57,-16.43 -29.57,-16.43 0,0 19.72,-24.65 46.02,-36.16 26.31,-11.51 47.69,-8.23 47.69,-8.23 0,0 -44.4,-31.22 -78.91,-29.58 -34.53,1.64 -39.45,16.44 -39.45,16.44 0,0 -3.3,-24.66 -72.31,-31.22 -69.04,-6.59 -152.88,142.98 -203.84,151.21 -50.95,8.22 -75.62,-14.81 -124.91,-50.96 -18.77,-13.75 -31.8,-22.72 -40.76,-28.58 -103.13,37.14 -208.03,70.12 -314.07,97.97 -3.31,0.85 -5.65,-4.14 -2.4,-5.66 88.76,-41.1 182.88,-67.26 274.76,-100.09 16.25,-5.78 32.11,-12.03 47.82,-18.42 29.29,-20.01 81.66,-60.93 139.83,-130.95 88.77,-106.87 103.57,-177.53 96.99,-287.65 -6.57,-110.14 19.72,-200.53 65.73,-259.73 46.02,-59.15 162.74,-111.75 179.16,-144.63 16.43,-32.87 -6.55,-65.75 -6.55,-65.75 0,0 19.71,-16.42 46.02,-26.31 26.29,-9.83 70.69,-6.55 70.69,-6.55 0,0 -27.95,-26.3 -57.55,-34.53 -29.6,-8.23 -85.47,8.23 -85.47,8.23 0,0 4.92,-19.73 0,-49.3 -4.95,-29.61 -21.4,-44.39 -21.4,-44.39 0,0 23.05,-11.51 47.71,-21.37 24.63,-9.87 65.73,-11.53 65.73,-11.53 0,0 -34.51,-19.72 -70.65,-19.72 -36.15,0 -72.33,16.45 -72.33,16.45 0,0 -16.44,-26.29 -36.19,-37.8 -19.71,-11.49 -47.66,-19.74 -47.66,-19.74 0,0 13.16,-13.14 24.63,-24.64 11.53,-11.5 31.26,-21.39 31.26,-21.39 0,0 -55.89,-6.55 -82.21,8.22 -26.28,14.8 -24.62,34.53 -24.62,34.53 0,0 -57.54,-6.56 -106.86,19.72 -49.3,26.33 -52.59,105.2 -41.07,184.12 11.49,78.88 -39.43,228.45 -72.32,309 -32.88,80.54 -105.22,159.45 -105.22,159.45 0,0 -27.94,-34.53 -85.46,-77.24 -37.32,-27.75 -60.75,-39.53 -72.63,-44.41 -99.35,26.17 -210.39,19.88 -311.82,12.32 -13.24,-0.99 -13.52,-21.4 0,-20.82 77.36,3.28 156.72,9.03 233.85,-1 37.41,-4.86 71.73,-13.86 104.48,-26.02 7.99,-8.35 15.81,-17.65 21.49,-26.93 18.05,-29.6 13.14,-57.54 13.14,-57.54 0,0 -32.89,34.52 -70.69,59.19 -37.84,24.66 -83.84,-1.65 -123.27,-29.62 -27.69,-19.58 -34.32,-55.28 -35.8,-74.9 -60.83,15.02 -127.58,17.32 -185.34,20.84 -117.39,7.16 -236.66,8.82 -343.39,63.79 -14.75,7.57 -26.66,-12.99 -12.94,-22.13 53.03,-35.31 90.19,-79.03 102.06,-142.96 1.05,-5.74 10.83,-4.45 10.23,1.38 -5.18,49.3 -20.79,86.16 -48.26,118.06 72.4,-22.33 147.88,-32.1 223.96,-36.73 66.52,-4.05 134.25,-5.49 200.04,-17.02 27.48,-4.82 53.94,-12.18 80.35,-19.8 30.56,-24.25 76.48,-63.74 79.74,-84.48 4.92,-31.22 -21.36,-65.74 -50.94,-70.64 -29.59,-4.95 -64.12,18.07 -64.12,18.07 0,0 4.94,-16.46 0,-36.19 -4.92,-19.7 -36.14,-41.09 -36.14,-41.09 0,0 4.92,19.74 8.2,36.16 3.29,16.45 -8.2,47.68 -8.2,47.68 0,0 -27.94,14.79 -85.48,37.79 -57.54,23.02 -95.34,6.59 -156.12,-9.86 -60.83,-16.41 -14.81,-96.96 24.62,-136.42 39.45,-39.44 70.68,-21.37 126.56,-26.29 55.89,-4.94 101.91,-24.66 101.91,-24.66 0,0 11.5,19.72 23.02,32.87 11.53,13.15 18.08,41.1 18.08,41.1 0,0 4.9,-29.57 6.59,-52.6 1.65,-22.99 -6.59,-44.39 -6.59,-44.39 0,0 35.35,-31.22 45.21,-50.93 9.86,-19.74 4.92,-69.06 -7.41,-110.97 -12.29,-41.91 -41.88,-64.09 -41.88,-64.09 0,0 12.32,-44.4 -29.59,-59.19 -41.9,-14.78 -276.15,73.98 -276.15,73.98 0,0 -32.05,-81.38 -101.08,-96.15 -69.04,-14.81 -192.31,9.85 -192.31,9.85 0,0 24.67,-51.77 46.83,-66.57 22.19,-14.79 69.05,-34.54 69.05,-34.54 0,0 -138.08,-2.44 -231.77,34.54 -93.68,37 -133.15,175.05 -133.15,175.05 0,0 -91.22,-41.9 -130.65,-32.07 -39.47,9.89 -56.73,24.66 -44.39,69.05 7.46,26.8 24.75,58.93 37.29,80.2 34.75,25.61 71.05,42.51 112.79,57.97 5.93,2.2 5.16,10.91 -1.53,11.16 -37.13,1.42 -71.18,-16.41 -100.99,-39.1 -13.07,21.42 -52.91,92.96 -54.96,173.32 -2.49,96.16 39.46,135.6 39.46,135.6 0,0 -71.52,140.54 -39.46,244.08 32.05,103.54 86.29,160.27 86.29,160.27 0,0 -44.38,160.26 24.66,234.23 69.02,73.97 192.32,135.6 192.32,135.6 0,0 -12.34,36.99 -51.77,69.04 -39.48,32.05 -110.96,46.85 -110.96,46.85 0,0 54.23,44.39 118.33,54.23 18.13,2.81 35.43,-0.03 50.98,-5.4 38.23,-44.35 95.39,-56.25 135.64,-99.54 42.36,-45.61 65.28,-104.17 106.08,-150.35 3.34,-3.8 8.74,0.29 7.88,4.59 -11.44,55.64 -43.73,113.83 -82.94,154.9 -22.37,23.46 -46.74,43.34 -76.66,56.33 -13.57,5.88 -27.7,11.26 -41.27,17.49 -18.67,22.98 -53.18,56.97 -112.02,88.56 -101.08,54.24 -300.79,123.28 -433.94,231.76 -53.39,43.51 -90.15,107.56 -99.76,140.21 -4.79,16.27 -6.73,37.7 -7.58,58.29 -46.01,17.92 -100.43,24.32 -150.59,-7.98 -117.76,-75.89 -127.62,-302.38 -40.66,-425.69 86.99,-123.37 334.05,-411.01 310.91,-657.26 -23.16,-246.25 -127.56,-383.55 -239.08,-385.71 -111.54,-2.17 -422.27,26.43 -464.6,238.81 -42.35,212.34 -2.78,241.45 -2.78,241.45 0,0 28.13,-78.92 55.74,-109.11 27.6,-30.16 61.16,-44.58 61.16,-44.58 0,0 24.01,9.56 12.62,94.03 -11.43,84.48 -83.22,222.76 -82.65,229.69 0.6,6.9 55.62,-27.93 74.61,-50.41 18.96,-22.46 47.49,-68.96 47.49,-68.96 0,0 -31.33,95.43 -76.01,143.28 -44.65,47.85 -88.55,104.92 -88.55,104.92 0,0 102.64,-48.1 129.26,-89.8 26.65,-41.68 68.21,-98.54 68.21,-98.54 0,0 -17.99,33.99 -18.52,82.75 -0.49,48.75 25.88,113.8 25.88,113.8 0,0 -15.46,-72.92 7.91,-125.95 23.34,-52.99 109.54,-48.7 139.3,-190.39 29.76,-141.7 -59.43,-236.22 -45.67,-293.05 13.75,-56.85 31.75,-90.85 110.25,-95.15 78.5,-4.33 164.33,23.21 195.81,175.97 31.48,152.73 -26.11,294.48 -133.4,452.02 -107.29,157.53 -264.33,303.03 -269.23,519.16 -4.9,216.13 72.37,307.02 194.32,350.05 56.63,19.99 123.9,12.05 179.72,-2.18 2.24,24.26 5.74,56.36 9.73,100.99 7.4,82.61 -11.12,86.28 -96.15,119.56 -85.08,33.28 -184.93,-22.18 -244.1,14.79 -59.18,37 48.06,256.45 49.32,343.96 1.21,87.52 -90,255.16 -66.6,295.87 23.46,40.65 85.09,25.88 125.75,35.74 40.69,9.86 32.06,98.62 62.89,118.35 30.81,19.71 53.01,14.8 53.01,14.8 0,0 19.73,27.11 32.07,48.07 12.32,20.95 -6.21,62.86 -6.21,62.86 0,0 44.41,-25.87 55.5,-56.67 11.11,-30.85 -6.15,-55.49 -6.15,-55.49 0,0 29.55,9.84 54.22,11.1 24.68,1.21 41.93,-6.17 41.93,-6.17 0,0 16.01,13.55 29.58,36.96 13.57,23.44 11.1,76.44 11.1,76.44 0,0 34.54,-54.24 35.75,-87.51 1.25,-33.27 -7.42,-56.73 -7.42,-56.73 0,0 22.21,-6.16 32.08,-12.32 9.87,-6.17 12.33,-7.38 12.33,-7.38 0,0 18.48,12.31 33.28,48.07 14.78,35.75 17.25,71.49 17.25,71.49 0,0 32.05,-54.25 28.36,-90 -3.71,-35.74 -14.81,-44.35 -14.81,-44.35 0,0 37.01,-22.2 38.22,-69.06 1.25,-46.84 -29.59,-81.36 -124.5,-119.56 -94.93,-38.22 -232.99,-9.89 -263.81,-73.97 -30.83,-64.14 -12.31,-136.84 69.04,-186.16 81.35,-49.31 120.82,-22.2 309.41,-32.06 123.3,-6.43 198.13,-91.9 235.17,-150.32 -0.29,-57.67 28.48,-105.1 78.14,-146.84 84.68,-71.2 142.2,-148.65 200.05,-242.01 3.27,-5.29 11.85,-1.88 10.1,4.24 -19.95,70.94 -65.29,134.56 -118.38,185.02 -54.45,51.8 -113.19,89.36 -140.03,147.7 6.35,12.48 38.28,72.24 80.14,98.66 46.84,29.58 186.13,-16.03 261.35,-17.24 75.19,-1.25 71.51,17.24 56.7,72.7 -14.79,55.5 -61.65,208.38 -16.03,258.9 45.61,50.55 181.23,35.74 251.5,41.91 70.27,6.17 81.35,113.41 125.75,134.39 44.36,20.96 135.58,13.55 160.25,11.1 24.66,-2.47 49.31,52.99 96.16,69.02 46.85,16.03 106.01,-9.86 106.01,-9.86 0,0 28.35,13.58 40.67,39.44 12.32,25.89 17.27,62.88 17.27,62.88 0,0 24.67,-45.6 22.2,-85.07 -2.47,-39.43 -27.15,-50.53 -27.15,-50.53 0,0 53.03,-2.47 69.05,-17.26 16.03,-14.78 19.72,-25.9 19.72,-25.9 0,0 22.2,8.64 48.08,28.36 25.88,19.71 35.75,60.41 35.75,60.41 0,0 19.73,-73.96 -3.68,-108.49 -23.42,-34.51 -49.33,-36.96 -49.33,-36.96 0,0 11.11,-32.06 13.58,-53.02 2.47,-20.99 2.47,-32.05 2.47,-32.05 0,0 34.51,-12.35 64.09,0 29.59,12.32 49.31,54.23 49.31,54.23 0,0 4.93,-61.63 -27.11,-98.63 -32.08,-36.96 -81.37,-29.58 -81.37,-29.58 0,0 24.64,-32.05 -73.98,-61.64 -98.63,-29.56 -167.64,17.26 -241.61,44.39 -73.97,27.12 -107.68,-54.27 -239.19,-103.57 -131.51,-49.31 -72.31,-108.48 -26.3,-230.11 46.03,-121.63 59.2,-177.51 -6.54,-289.27 -65.77,-111.77 -243.3,-128.22 -243.3,-128.22 0,0 295.87,-92.05 387.93,-161.09 66.52,-49.9 90.05,-99.66 98,-123.46 -29.98,0.43 -55.09,7.99 -80.02,26.87 -6.98,5.27 -13.4,-5.48 -8.69,-11.24 19.72,-24.14 47.72,-39.55 79.36,-41.23 9.85,-0.51 21.88,-1.18 34.17,-0.81 12.75,-5.06 31.26,-9.49 56.33,-7.92 52.62,3.29 149.59,69.03 208.79,77.25 59.14,8.23 82.14,-19.71 111.72,-36.16 29.61,-16.45 133.15,19.73 195.62,13.16 62.47,-6.59 60.82,-55.89 60.82,-55.89 0,0 27.95,1.64 52.61,4.93 24.65,3.31 50.94,27.94 50.94,27.94 0,0 -6.59,-47.67 -31.21,-72.31 -24.68,-24.66 -50.97,-23.03 -50.97,-23.03 0,0 27.92,-19.71 34.52,-37.79z"/>
  <path class="fil2" d="M18480.07 11646.88c4.78,7.07 15.65,0.89 11.54,-6.74 -21.18,-39.16 -51.04,-66.56 -82.54,-97.3 -17.56,-17.1 -31.7,-34.56 -44.1,-53.27 54.8,60.65 154.62,97.05 228.42,102.64 4.8,0.38 5.7,-7.2 1.1,-8.29 -96.53,-22.91 -171.09,-74.63 -247.99,-134.08 -1.54,-1.19 -3.29,-1.09 -4.69,-0.42 -2.72,-5.33 -5.37,-10.82 -8,-16.44 -2.09,-4.48 -8.68,-1.98 -8.76,2.39 -2.78,96.71 107.86,141.23 155.02,211.51zm424.95 -374.28c22.26,-43.69 68.65,-54.67 112.02,-66.29 6.57,-1.78 9.72,-8.41 8.35,-14.72 -11.31,-52.77 -10.48,-111.13 5.89,-162.86 16.22,-51.32 42.17,-77.75 78.45,-114.59 4.71,-4.77 1.65,-14.91 -5.86,-14.18 -80.9,8.07 -109.34,123.55 -111.8,189.94 -0.8,22.31 -0.94,44.61 2.2,66.76 5.22,36.69 -0.13,31.08 -34.45,45.22 -33.81,13.9 -50.14,34.66 -61.33,67.99 -1.29,3.81 4.71,6.35 6.53,2.73zm127.36 98.81c23.84,-53.7 82.56,-67.18 133.95,-81.21 6.52,-1.78 9.75,-8.36 8.36,-14.72 -13.98,-62.88 -12.96,-132.83 6.02,-194.64 19.28,-62.77 49.67,-95.4 95.94,-138.93 4.9,-4.61 1.5,-15.04 -5.87,-14.16 -96.51,11.31 -128.86,152.28 -131.27,230.98 -0.83,27.44 -0.64,55 3.68,82.18 5.67,35.55 1.76,30.53 -32.12,43.17 -44.32,16.49 -70.09,40.39 -85.24,84.59 -1.3,3.79 4.9,6.45 6.55,2.74zm249.88 -770.17c34.67,45.65 60.95,99.36 72.62,155.73 15.08,72.76 5.16,123.24 -23.18,190.2 -2.9,6.88 3.6,16.4 11.35,11.32 82.38,-53.86 50.48,-188.26 21.87,-262.96 -8.88,-23.22 -20.25,-46.67 -33.84,-67.5 -18.33,-28.14 -26.49,-25.58 -2.34,-50.55 35.94,-37.14 56.04,-68.47 50.7,-121.04 -0.47,-4.5 -7.14,-4.71 -7.17,0 -0.2,59.7 -47.28,95.86 -88.13,130.29 -3.73,3.13 -4.89,10.53 -1.88,14.51zm-99.25 -18.15c19.74,-25.33 27.78,-42.89 24.09,-75.23 -0.54,-4.6 -6.61,-4.59 -7.16,0 -4.73,39.92 -32.85,62.19 -61.48,85.89 -3.82,3.14 -4.8,10.52 -1.87,14.5 54.93,75.06 60.41,148.14 33.79,233.95 -2.19,7.07 6.04,12.97 12.17,9.36 61.08,-35.64 37.63,-130.88 17.13,-183.75 -6.31,-16.37 -14.66,-33.29 -24.67,-47.76 -15.16,-21.95 -8.55,-15.73 8,-36.96zm-128.37 0c19.76,-25.33 27.82,-42.89 24.11,-75.23 -0.53,-4.6 -6.63,-4.59 -7.17,0 -4.72,39.92 -32.83,62.19 -61.49,85.89 -3.81,3.14 -4.8,10.52 -1.87,14.5 54.95,75.06 60.44,148.14 33.79,233.95 -2.18,7.07 6.06,12.97 12.2,9.36 61.05,-35.64 37.62,-130.88 17.14,-183.75 -6.33,-16.37 -14.67,-33.29 -24.68,-47.76 -15.18,-21.95 -8.58,-15.73 7.97,-36.96zm-85.25 -335.51c-23.62,-20.31 -56.92,-39.14 -70.09,-37.76 5.26,13.1 12.8,23.44 3.69,34.47 -9.14,11.01 -38.97,13.05 -43.36,28.26 39.09,-5.32 58.86,-7.06 90.06,2.75 31.21,9.83 66.69,29.41 66.69,29.41 0,0 -23.37,-36.87 -46.99,-57.13zm-1401.44 1425.18c-6.58,-18.09 -9.85,-31.26 -9.85,-31.26 0,0 -26.3,-1.62 -49.33,3.31 -23,4.93 -54.23,32.87 -54.23,32.87 0,0 9.86,-55.9 47.68,-75.62 37.79,-19.71 73.96,-19.71 73.96,-19.71 0,0 -1.63,-23.02 13.16,-36.17 14.77,-13.13 29.56,-16.43 29.56,-16.43 0,0 -19.72,-24.65 -46.01,-36.16 -26.32,-11.51 -47.69,-8.23 -47.69,-8.23 0,0 44.4,-31.22 78.91,-29.58 34.54,1.64 39.45,16.44 39.45,16.44 0,0 3.3,-24.66 72.32,-31.22 69.02,-6.59 152.88,142.98 203.82,151.21 50.96,8.22 75.63,-14.81 124.92,-50.96 18.77,-13.75 31.8,-22.72 40.77,-28.58 103.12,37.14 208.02,70.12 314.06,97.97 3.31,0.85 5.64,-4.14 2.4,-5.66 -88.76,-41.1 -182.88,-67.26 -274.77,-100.09 -16.23,-5.78 -32.1,-12.03 -47.8,-18.42 -29.31,-20.01 -81.68,-60.93 -139.84,-130.95 -88.76,-106.87 -103.57,-177.53 -96.99,-287.65 6.56,-110.14 -19.72,-200.53 -65.73,-259.73 -46.02,-59.15 -162.74,-111.75 -179.17,-144.63 -16.42,-32.87 6.56,-65.75 6.56,-65.75 0,0 -19.71,-16.42 -46.01,-26.31 -26.3,-9.83 -70.7,-6.55 -70.7,-6.55 0,0 27.95,-26.3 57.55,-34.53 29.6,-8.23 85.47,8.23 85.47,8.23 0,0 -4.93,-19.73 0,-49.3 4.95,-29.61 21.4,-44.39 21.4,-44.39 0,0 -23.05,-11.51 -47.71,-21.37 -24.64,-9.87 -65.73,-11.53 -65.73,-11.53 0,0 34.51,-19.72 70.65,-19.72 36.15,0 72.33,16.45 72.33,16.45 0,0 16.44,-26.29 36.19,-37.8 19.7,-11.49 47.66,-19.74 47.66,-19.74 0,0 -13.16,-13.14 -24.64,-24.64 -11.52,-11.5 -31.26,-21.39 -31.26,-21.39 0,0 55.9,-6.55 82.22,8.22 26.27,14.8 24.62,34.53 24.62,34.53 0,0 57.53,-6.56 106.86,19.72 49.3,26.33 52.59,105.2 41.07,184.12 -11.49,78.88 39.43,228.45 72.32,309 32.88,80.54 105.22,159.45 105.22,159.45 0,0 27.94,-34.53 85.46,-77.24 37.32,-27.75 60.74,-39.53 72.64,-44.41 99.34,26.17 210.38,19.88 311.81,12.32 13.24,-0.99 13.51,-21.4 0,-20.82 -77.35,3.28 -156.73,9.03 -233.85,-1 -37.42,-4.86 -71.73,-13.86 -104.49,-26.02 -7.99,-8.35 -15.8,-17.65 -21.48,-26.93 -18.05,-29.6 -13.13,-57.54 -13.13,-57.54 0,0 32.88,34.52 70.69,59.19 37.82,24.66 83.83,-1.65 123.26,-29.62 27.69,-19.58 34.32,-55.28 35.8,-74.9 60.83,15.02 127.58,17.32 185.35,20.84 117.38,7.16 236.65,8.82 343.39,63.79 14.74,7.57 26.65,-12.99 12.93,-22.13 -53.03,-35.31 -90.2,-79.03 -102.06,-142.96 -1.05,-5.74 -10.83,-4.45 -10.23,1.38 5.18,49.3 20.79,86.16 48.26,118.06 -72.39,-22.33 -147.88,-32.1 -223.96,-36.73 -66.51,-4.05 -134.25,-5.49 -200.04,-17.02 -27.48,-4.82 -53.94,-12.18 -80.36,-19.8 -30.55,-24.25 -76.46,-63.74 -79.73,-84.48 -4.93,-31.22 21.36,-65.74 50.94,-70.64 29.58,-4.95 64.11,18.07 64.11,18.07 0,0 -4.92,-16.46 0,-36.19 4.94,-19.7 36.15,-41.09 36.15,-41.09 0,0 -4.92,19.74 -8.21,36.16 -3.28,16.45 8.21,47.68 8.21,47.68 0,0 27.94,14.79 85.47,37.79 57.55,23.02 95.35,6.59 156.13,-9.86 60.83,-16.41 14.82,-96.96 -24.62,-136.42 -39.45,-39.44 -70.68,-21.37 -126.56,-26.29 -55.89,-4.94 -101.91,-24.66 -101.91,-24.66 0,0 -11.5,19.72 -23.03,32.87 -11.52,13.15 -18.08,41.1 -18.08,41.1 0,0 -4.9,-29.57 -6.59,-52.6 -1.64,-22.99 6.59,-44.39 6.59,-44.39 0,0 -35.34,-31.22 -45.19,-50.93 -9.87,-19.74 -4.94,-69.06 7.39,-110.97 12.3,-41.91 41.89,-64.09 41.89,-64.09 0,0 -12.32,-44.4 29.59,-59.19 41.9,-14.78 276.14,73.98 276.14,73.98 0,0 32.05,-81.38 101.1,-96.15 69.02,-14.81 192.31,9.85 192.31,9.85 0,0 -24.67,-51.77 -46.85,-66.57 -22.19,-14.79 -69.04,-34.54 -69.04,-34.54 0,0 138.09,-2.44 231.77,34.54 93.68,37 133.15,175.05 133.15,175.05 0,0 91.22,-41.9 130.65,-32.07 39.47,9.89 56.73,24.66 44.39,69.05 -7.45,26.8 -24.74,58.93 -37.3,80.2 -34.74,25.61 -71.04,42.51 -112.79,57.97 -5.93,2.2 -5.15,10.91 1.54,11.16 37.14,1.42 71.19,-16.41 100.99,-39.1 13.07,21.42 52.91,92.96 54.95,173.32 2.5,96.16 -39.45,135.6 -39.45,135.6 0,0 71.52,140.54 39.45,244.08 -32.05,103.54 -86.28,160.27 -86.28,160.27 0,0 44.37,160.26 -24.66,234.23 -69.02,73.97 -192.31,135.6 -192.31,135.6 0,0 12.34,36.99 51.77,69.04 39.47,32.05 110.95,46.85 110.95,46.85 0,0 -54.23,44.39 -118.33,54.23 -18.13,2.81 -35.43,-0.03 -50.98,-5.4 -38.22,-44.35 -95.39,-56.25 -135.64,-99.54 -42.36,-45.61 -65.28,-104.17 -106.08,-150.35 -3.34,-3.8 -8.75,0.29 -7.87,4.59 11.43,55.64 43.73,113.83 82.93,154.9 22.37,23.46 46.74,43.34 76.67,56.33 13.56,5.88 27.69,11.26 41.26,17.49 18.67,22.98 53.18,56.97 112.01,88.56 101.09,54.24 300.8,123.28 433.96,231.76 53.38,43.51 90.14,107.56 99.74,140.21 4.8,16.27 6.75,37.7 7.6,58.29 46,17.92 100.41,24.32 150.58,-7.98 117.76,-75.89 127.62,-302.38 40.66,-425.69 -86.98,-123.37 -334.06,-411.01 -310.91,-657.26 23.16,-246.25 127.55,-383.55 239.07,-385.71 111.55,-2.17 422.29,26.43 464.62,238.81 42.34,212.34 2.77,241.45 2.77,241.45 0,0 -28.13,-78.92 -55.74,-109.11 -27.59,-30.16 -61.15,-44.58 -61.15,-44.58 0,0 -24.02,9.56 -12.63,94.03 11.43,84.48 83.22,222.76 82.65,229.69 -0.59,6.9 -55.62,-27.93 -74.61,-50.41 -18.96,-22.46 -47.49,-68.96 -47.49,-68.96 0,0 31.34,95.43 76.01,143.28 44.65,47.85 88.55,104.92 88.55,104.92 0,0 -102.64,-48.1 -129.27,-89.8 -26.63,-41.68 -68.2,-98.54 -68.2,-98.54 0,0 17.99,33.99 18.53,82.75 0.48,48.75 -25.89,113.8 -25.89,113.8 0,0 15.46,-72.92 -7.91,-125.95 -23.34,-52.99 -109.53,-48.7 -139.29,-190.39 -29.77,-141.7 59.41,-236.22 45.66,-293.05 -13.76,-56.85 -31.75,-90.85 -110.25,-95.15 -78.49,-4.33 -164.33,23.21 -195.81,175.97 -31.49,152.73 26.12,294.48 133.4,452.02 107.29,157.53 264.33,303.03 269.24,519.16 4.9,216.13 -72.38,307.02 -194.33,350.05 -56.63,19.99 -123.89,12.05 -179.71,-2.18 -2.24,24.26 -5.75,56.36 -9.74,100.99 -7.4,82.61 11.12,86.28 96.16,119.56 85.07,33.28 184.92,-22.18 244.09,14.79 59.18,37 -48.07,256.45 -49.32,343.96 -1.21,87.52 90.01,255.16 66.6,295.87 -23.46,40.65 -85.08,25.88 -125.76,35.74 -40.68,9.86 -32.06,98.62 -62.88,118.35 -30.81,19.71 -53.01,14.8 -53.01,14.8 0,0 -19.72,27.11 -32.06,48.07 -12.33,20.95 6.19,62.86 6.19,62.86 0,0 -44.4,-25.87 -55.48,-56.67 -11.12,-30.85 6.13,-55.49 6.13,-55.49 0,0 -29.54,9.84 -54.2,11.1 -24.68,1.21 -41.95,-6.17 -41.95,-6.17 0,0 -16,13.55 -29.58,36.96 -13.56,23.44 -11.08,76.44 -11.08,76.44 0,0 -34.54,-54.24 -35.75,-87.51 -1.26,-33.27 7.4,-56.73 7.4,-56.73 0,0 -22.2,-6.16 -32.07,-12.32 -9.86,-6.17 -12.33,-7.38 -12.33,-7.38 0,0 -18.49,12.31 -33.28,48.07 -14.79,35.75 -17.25,71.49 -17.25,71.49 0,0 -32.05,-54.25 -28.36,-90 3.71,-35.74 14.8,-44.35 14.8,-44.35 0,0 -37.01,-22.2 -38.22,-69.06 -1.24,-46.84 29.6,-81.36 124.51,-119.56 94.93,-38.22 232.99,-9.89 263.8,-73.97 30.84,-64.14 12.32,-136.84 -69.02,-186.16 -81.36,-49.31 -120.83,-22.2 -309.42,-32.06 -123.3,-6.43 -198.14,-91.9 -235.17,-150.32 0.29,-57.67 -28.48,-105.1 -78.14,-146.84 -84.68,-71.2 -142.21,-148.65 -200.05,-242.01 -3.27,-5.29 -11.85,-1.88 -10.1,4.24 19.95,70.94 65.28,134.56 118.37,185.02 54.46,51.8 113.2,89.36 140.04,147.7 -6.34,12.48 -38.27,72.24 -80.14,98.66 -46.84,29.58 -186.13,-16.03 -261.35,-17.24 -75.19,-1.25 -71.51,17.24 -56.7,72.7 14.79,55.5 61.65,208.38 16.03,258.9 -45.62,50.55 -181.23,35.74 -251.5,41.91 -70.27,6.17 -81.35,113.41 -125.75,134.39 -44.36,20.96 -135.58,13.55 -160.24,11.1 -24.67,-2.47 -49.33,52.99 -96.16,69.02 -46.86,16.03 -106.02,-9.86 -106.02,-9.86 0,0 -28.35,13.58 -40.68,39.44 -12.31,25.89 -17.26,62.88 -17.26,62.88 0,0 -24.67,-45.6 -22.2,-85.07 2.47,-39.43 27.15,-50.53 27.15,-50.53 0,0 -53.02,-2.47 -69.05,-17.26 -16.03,-14.78 -19.72,-25.9 -19.72,-25.9 0,0 -22.2,8.64 -48.08,28.36 -25.88,19.71 -35.75,60.41 -35.75,60.41 0,0 -19.74,-73.96 3.67,-108.49 23.43,-34.51 49.34,-36.96 49.34,-36.96 0,0 -11.12,-32.06 -13.58,-53.02 -2.46,-20.99 -2.46,-32.05 -2.46,-32.05 0,0 -34.52,-12.35 -64.1,0 -29.59,12.32 -49.31,54.23 -49.31,54.23 0,0 -4.93,-61.63 27.11,-98.63 32.07,-36.96 81.36,-29.58 81.36,-29.58 0,0 -24.63,-32.05 73.99,-61.64 98.63,-29.56 167.65,17.26 241.62,44.39 73.96,27.12 107.66,-54.27 239.18,-103.57 131.51,-49.31 72.31,-108.48 26.3,-230.11 -46.02,-121.63 -59.2,-177.51 6.54,-289.27 65.77,-111.77 243.3,-128.22 243.3,-128.22 0,0 -295.86,-92.05 -387.94,-161.09 -66.51,-49.9 -90.05,-99.66 -97.99,-123.46 29.99,0.43 55.09,7.99 80.02,26.87 6.98,5.27 13.41,-5.48 8.69,-11.24 -19.71,-24.14 -47.72,-39.55 -79.36,-41.23 -9.85,-0.51 -21.88,-1.18 -34.17,-0.81 -12.74,-5.06 -31.26,-9.49 -56.33,-7.92 -52.62,3.29 -149.59,69.03 -208.78,77.25 -59.15,8.23 -82.16,-19.71 -111.74,-36.16 -29.59,-16.45 -133.14,19.73 -195.61,13.16 -62.47,-6.59 -60.82,-55.89 -60.82,-55.89 0,0 -27.95,1.64 -52.61,4.93 -24.66,3.31 -50.94,27.94 -50.94,27.94 0,0 6.59,-47.67 31.22,-72.31 24.67,-24.66 50.96,-23.03 50.96,-23.03 0,0 -27.92,-19.71 -34.52,-37.79z"/>
  <path class="fil3" d="M11758.68 15054.61l0 -204.89 0 -28.79 -199.81 83.82c27.94,0 50.8,27.94 50.8,55.88l0 93.98 0 303.11c0,27.94 -22.86,55.88 -50.8,55.88l50.8 0 24.55 0 62.65 0 61.81 0 51.65 0c-29.64,0 -51.65,-27.94 -51.65,-55.88l0 -303.11z"/>
  <path class="fil3" d="M11987.83 15353.33c20.43,-16.81 33.3,-42.96 33.5,-72.6 0.33,-49.95 -37.5,-90.84 -84.06,-91.15 -46.57,-0.31 -84.94,40.08 -85.27,90.03 -0.43,65.2 64.43,116.43 145.61,130.5 -40.59,-7.03 -24.25,-44.18 -9.78,-56.78zm61.1 -532.18c75.26,14.05 83.45,183.44 82.86,274.03l-0.04 5.92 -0.12 16.94c-0.54,82.13 -3.64,296.33 -95.08,295.72 132.08,0.87 239.48,-107.64 240.71,-294.76 1.21,-182.87 -100.52,-292.77 -228.33,-297.85zm-48.76 330.74c19.48,-2.42 39.01,-7.37 56.83,-13.18 -60.97,-0.4 -81.72,-64.88 -85.51,-130.95 -6.09,-104.18 22.32,-175.96 58.8,-186.73 -90.61,3.64 -193.51,71.54 -200.95,172.24l-0.09 13.55c-0.63,96.52 78.56,155.47 170.92,145.07z"/>
  <path class="fil3" d="M12470.84 15354.61c20.55,-16.66 33.6,-42.73 34,-72.37 0.68,-49.94 -36.86,-91.1 -83.42,-91.73 -46.56,-0.63 -85.21,39.48 -85.89,89.43 -0.89,65.19 63.61,116.88 144.69,131.52 -40.54,-7.32 -23.94,-44.35 -9.38,-56.85zm64.81 -531.73c75.16,14.57 82.17,184.01 80.94,274.61l-0.08 5.92 -0.23 16.93c-1.12,82.12 -5.72,296.28 -97.16,295.04 132.07,1.8 240.23,-105.96 242.77,-293.06 2.49,-182.86 -98.47,-293.46 -226.24,-299.44zm-51.06 330.39c19.5,-2.28 39.05,-7.09 56.91,-12.78 -60.96,-0.83 -81.25,-65.45 -84.58,-131.54 -5.37,-104.23 23.55,-175.81 60.11,-186.32 -90.64,3 -194.02,70.18 -202.16,170.83l-0.18 13.55c-1.31,96.51 77.46,156.01 169.9,146.26z"/>
  <path class="fil3" d="M12921.47 15373.87c30.78,-13.76 53.45,-45.46 54.21,-81.87 1.04,-49.94 -38.75,-91.41 -88.69,-92.45 -49.94,-1.04 -91.41,38.75 -92.45,88.68 -0.44,21.17 5.94,39.94 18.3,56.28l-0.02 0.85c0,0 0.83,0.87 1.66,1.72 23.92,30.99 57.33,52.86 99.4,66.43 -14.29,-5.37 -14.64,-29.1 7.59,-39.64zm69.3 -278.03c-43.17,-0.89 -83.18,9.28 -118.3,28.04 16.25,-7.29 37.48,-10.24 51.87,-9.94 66.88,1.39 120.45,71.96 118.72,154.91 -1.48,71.1 -46,135.38 -100.46,147.8 -6.82,2.4 -11.89,1.45 -16.1,0.52 19.38,4.63 38.79,7.58 57.42,7.96 112.6,2.35 206.39,-69.38 208.27,-159.95 1.9,-91.42 -88.82,-166.99 -201.42,-169.34zm-110.21 -116.61c52.49,1.09 111.76,42.12 179.48,43.53 64.34,1.34 127.07,-42.24 128.8,-125.2 0.51,-24.54 -4.15,-44.96 -10.59,-61.19 -0.18,8.47 -20.45,47 -82.95,38.92 -58.33,-5.44 -87.31,-37.38 -141.43,-41.05 -80.37,-4.21 -130.01,61.66 -130.61,90.44l-0.42 20.32 -1.51 72.79c0.23,-11 21.99,-39.34 59.23,-38.56z"/>
  <path class="fil3" d="M10837.88 15257.09c-16.52,-158.02 -305.48,-214.41 -297.81,-346.66 2.49,-47.46 36.71,-74.36 76.42,-78.5l-12.7 0.24c-91.41,1.72 -214.32,40.45 -212.41,142.03 3,159.14 310.12,235.5 312.52,363.33 0.81,43.17 -35.72,81.96 -76.27,86.96 119.31,-4.79 218.71,-77.79 210.25,-167.4zm-46.16 -428.45c-10.83,9.52 -31.1,12.44 -50.57,12.81 -36.4,0.68 -66.16,-5.54 -102.62,-8.23 81.44,7.78 141.39,88.79 156.2,155.41l-3.01 -159.99zm-261.35 557.03c-2.84,-16.04 5.52,-22.12 22.93,-41.93 15.78,-16.38 25.49,-40.28 25.03,-64.82 -0.94,-49.95 -42.34,-89.81 -92.28,-88.87 -49.94,0.94 -89.81,42.32 -88.87,92.27 1.51,80.42 96.64,140.45 210.98,142.53 -47.44,-1.65 -74.03,-19.78 -77.79,-39.18z"/>
  <path class="fil3" d="M11212.39 15325.63l-6.36 -496.95 -0.07 -5.08 -149.84 1.92 0.07 5.08 6.36 496.94 0.44 34.71c0.36,27.94 -20.45,56.15 -50.08,56.53l251.43 -3.22c-27.93,0.36 -51.15,-27.29 -51.51,-55.23l-0.44 -34.7zm-335.74 -497.82l2.05 160.01c21.79,-83.26 73.41,-151.65 158.79,-162.07l-160.84 2.06zm348.78 -4.46c83.93,8.24 140.66,74.4 162.05,157.96l-2.04 -160.01 -160.01 2.05z"/>
  <path class="fil3" d="M10128.8 14853.23l-0.12 -5.08 -199.75 4.93c27.93,-0.69 51.47,26.68 52.16,54.61l11.88 480.77c0.69,27.93 -21.47,56.42 -49.4,57.11l199.75 -4.93 -0.13 -5.08 -14.39 -582.33zm8.35 -5.29c96.49,-2.38 184.6,67.43 209.63,154.89l-3.96 -159.97 -172.66 4.26 -33.01 0.82zm220.31 587.41l-3.93 -159.12c-20.66,89.43 -105.25,161.81 -201.74,164.2l205.67 -5.08zm-221.46 -290.95c62.63,-1.55 118.76,41.95 136.24,98.26l-5.02 -203.14c-14.68,57.1 -68.59,103.33 -131.22,104.88z"/>
  <path class="fil0" d="M11551.64 326.11c260,-211.09 589.91,-354.58 928.81,-273.01 133.96,32.24 251.17,96.47 350.32,183.17 25.75,-19.95 55.91,-34.81 89.77,-43.89 180.63,-48.46 368.76,-52.11 547.6,5.87 368.73,119.5 573.89,452.68 643.36,819.21 77.67,409.74 -5.33,856.95 -162.63,1238.37 -125.24,303.65 -308.06,593.13 -539.68,827.99 10.02,27.01 15.49,56.18 15.49,86.6l0 415.42c0,137.71 -112.31,250.04 -250.02,250.04l-3246.56 0c-137.71,0 -250.04,-112.33 -250.04,-250.04l0 -415.42c0,-30.29 5.44,-59.34 15.39,-86.25 -231.74,-234.89 -414.37,-524.59 -539.63,-828.34 -157.3,-381.38 -240.42,-828.59 -162.89,-1238.33 69.36,-366.57 274.45,-699.81 643.26,-819.27 179.09,-58.03 366.81,-54.31 547.76,-5.9 33.85,9.07 64.03,23.88 89.79,43.83 99.18,-86.65 216.41,-150.81 350.51,-183.06 64.32,-15.47 130.16,-23.09 196.32,-23.09 272.55,0 525.24,127 733.07,296.1z"/>
  <path class="fil1" d="M9912.1 3601.84l3278.55 0 0 -447.41 -3278.55 0 0 447.41zm170 -170l2938.55 0 0 -107.41 -2938.55 0 0 107.41zm-106.71 -637.19l144.2 0c-117.69,-201.07 -210.24,-417.74 -277.05,-639.7 -149.29,-496.02 -188.54,-1106.28 28.97,-1594.16 -37.98,2.78 -75.76,9.8 -112.83,21.8 -222.28,72.01 -330.02,294.69 -370.77,510.02 -62.56,330.7 12.79,702.16 139.41,1009.19 104.17,252.62 255.88,496.31 448.07,692.85zm806.49 0l497.47 0 0 -2168.96c-130.98,-103.02 -294.52,-191.65 -460.79,-191.65 -34.34,0 -68.41,3.84 -101.81,11.88 -137.48,33.08 -237.89,134.04 -306.65,253.68 -209.53,364.56 -163.28,911.8 -46.8,1298.52 85.65,284.39 227.01,566.54 418.58,796.53zm1538.5 0c191.52,-229.98 333.03,-512.09 418.59,-796.5 116.38,-386.83 162.51,-933.89 -46.84,-1298.62 -68.52,-119.38 -169.05,-220.59 -306.24,-253.62 -199.04,-47.91 -405.88,57.18 -562.58,180.27l0 2168.47 497.07 0zm910.7 -2233.83c217.3,487.97 178.35,1098.11 29.03,1594.14 -66.8,221.93 -159.23,438.59 -276.79,639.69l143.57 0c192.26,-196.57 344.23,-440.14 448.45,-692.85 126.62,-307.03 201.89,-678.43 139.2,-1009.11 -40.82,-215.36 -148.67,-438.05 -370.97,-510.11 -36.9,-11.96 -74.57,-18.95 -112.49,-21.76zm-3377.24 2352.69c-207.34,-212.03 -370.84,-473.27 -483.68,-746.89 -139.76,-338.89 -218.15,-741.61 -149.29,-1105.62 52.74,-278.71 200.09,-547.71 485.42,-640.14 49.58,-16.04 100.87,-25.82 152.82,-29.63l283.36 -20.73 -115.69 259.5c-199.28,447.02 -159.58,1017.01 -21.45,1475.96 63.15,209.84 150.24,413.6 260.97,602.82l149.75 255.87 -512.19 0 -50.02 -51.14zm797.43 -10.05c-206.04,-247.35 -358.12,-548.79 -450.76,-856.32 -131.32,-436.04 -172,-1024.74 62.2,-1432.25 92.49,-160.94 230.1,-289.93 414.28,-334.25 46.37,-11.15 93.87,-16.6 141.57,-16.6 208.47,0 405.39,101.79 565.89,228.01l64.9 51.05 0 2421.55 -747.1 0 -50.98 -61.19zm1748.76 61.19l-746.72 0 0 -2421.12 64.98 -51.05c197.49,-155.12 451.86,-273.36 707.39,-211.85 183.88,44.27 321.64,173.54 413.89,334.28 233.97,407.63 193.4,996.11 62.18,1432.22 -92.51,307.54 -244.76,608.97 -450.75,856.3l-50.97 61.22zm843.57 -2573.36c51.79,3.82 102.95,13.55 152.38,29.57 285.31,92.48 432.77,361.47 485.59,640.16 69,364 -9.31,766.7 -149.07,1105.6 -112.87,273.71 -276.67,534.86 -484.08,746.89l-50.01 51.14 -511.42 0 149.56 -255.8c110.66,-189.27 197.62,-393.07 260.77,-602.89 138.18,-459 177.55,-1028.88 -21.54,-1475.97l-115.62 -259.63 283.44 20.93z"/>
 </g>
</svg>
