<?xml version="1.0" encoding="UTF-8"?> <svg xmlns="http://www.w3.org/2000/svg" width="80" height="62" fill="none"><g clip-path="url(#clip0_7040_13282)" fill="#DAAF6F"><path d="M.761 43.378L.71 42.172c1.42-.225 2.84-.466 4.276-.69 1.419 2.862 2.838 5.707 4.275 8.569v-7.07c-.242-.275-.502-.534-.744-.81l-.052-1.327c1.315-.224 2.613-.466 3.929-.69l-.052 1.38c-.225.327-.467.655-.692.982l-.052 14.88c.277.241.536.5.813.741v1.259c-1.315.241-2.614.5-3.929.741L8.43 58.93c.277-.38.537-.758.814-1.155.034-.914.069-1.845.12-2.759-1.765-3.327-3.53-6.672-5.313-10V58.69l.692.741.052 1.259c-1.28.276-2.579.534-3.86.81l-.052-1.26c.294-.379.57-.758.865-1.155l-.052-14.827c-.363-.259-.64-.57-.935-.88zm13.795.398l-.052-1.034c2.285-.396 4.57-.81 6.872-1.207l.052 2.535c-.364.051-.727.12-1.09.172-.243-.19-.503-.38-.745-.569l-2.648.517v3.914a4.8 4.8 0 001.506-.173 4.558 4.558 0 001.332-.637l.052 2.534c-.917.034-1.852.069-2.769.12-.052 1.656-.121 3.294-.173 4.949.883-.104 1.765-.19 2.648-.293.242-.294.502-.57.744-.862.381-.052.762-.121 1.16-.173l-.052 2.466c-2.285.396-4.57.81-6.871 1.206v-1.086l.692-.741-.052-10.913a19.235 19.235 0 01-.606-.725zm9.52-1.086l-.52-.517v-.862c1.108-.207 2.234-.414 3.341-.638l2.649 8.74c.83-3.206 1.661-6.395 2.475-9.602 1.142-.224 2.267-.466 3.41-.69v1.155l-.52.57-.052 11.033.571.57c.018.361.018.74.035 1.102-.987.173-1.973.328-2.977.5-.035-.344-.07-.69-.121-1.034.208-.241.415-.5.64-.741v-8.793c-.865 3.155-1.73 6.327-2.596 9.482.138.466.277.931.398 1.397-.883.155-1.748.293-2.63.448.138-.448.293-.88.432-1.327-.866-2.983-1.731-5.983-2.596-8.966-.035 2.949-.07 5.897-.122 8.845.19.207.381.414.572.638v1.086c-1.004.155-2.008.31-2.995.465v-1.034c.208-.224.416-.466.64-.69 0-3.706-.017-7.413-.034-11.137zm13.414-3.018c.017-.327.035-.655.035-1 1.004-.155 2.025-.31 3.029-.482.017.379.034.74.034 1.12-.207.259-.398.517-.605.776.017 3.655.034 7.293.034 10.948.173.19.346.38.52.552v1c-1.022.137-2.043.293-3.081.43v-1.034c.225-.241.467-.483.692-.724-.017-3.655-.035-7.293-.035-10.948-.173-.207-.398-.414-.623-.638zm10.732 11.603c1.056-.155 2.111-.327 3.15-.482-.07-.38-.139-.742-.208-1.121a76.94 76.94 0 00-2.111-4.948c-.035-.052-.052-.12-.087-.172h.087c.069 0 .26 0 .484-.035.156-.035.416-.086.693-.31.277-.207.415-.466.484-.604v-6c0-.086 0-.258-.086-.43-.121-.26-.364-.38-.485-.432 0 0-.26-.12-.554-.138-.484 0-3.133.449-6.75 1.173-.017.362-.035.724-.035 1.069l.554.552h.035V50.31l-.52.776c-.017.362-.034.724-.034 1.069 1.038-.173 2.094-.345 3.133-.518-.018-.327-.052-.638-.07-.965a18.31 18.31 0 00-.727-.5V45.31c.727-.12 1.437-.224 2.164-.345.52 1.57 1.038 3.138 1.558 4.69-.208.19-.433.379-.658.551-.017.38-.017.724-.017 1.07zm-3.012-7.861v.051c.087 0 .156.052.208.121.052.069.104.155.156.224.034.052.052.104.034.155.19.052.312.276.139.431l-.052.052a.19.19 0 01-.087.172c-.156.138-.329.31-.536.363-.19.051-.399-.07-.416-.276 0-.104.035-.19.104-.276-.19-.293.017-.655.242-.862a.26.26 0 01.19-.07c-.017-1.43-.017-2.844-.034-4.275h.035c1.246-.224 2.475-.465 3.721-.69-.017 1.414-.035 2.81-.035 4.224-1.228.207-2.457.431-3.669.656z"></path><path d="M45.002 43.533c-.225.224-.45.57-.242.862a.457.457 0 00-.104.276c.017.207.225.328.415.276.208-.052.381-.224.537-.362a.21.21 0 00.086-.173l.052-.051c.173-.155.052-.38-.138-.431a.502.502 0 00-.035-.155c-.052-.07-.104-.156-.156-.225-.052-.069-.12-.12-.207-.12-.087.034-.156.051-.208.103zm15.906-7.017v-.551a.64.64 0 00-.034-.345c-.052-.138-.121-.207-.208-.31-.104-.121-.207-.242-.38-.31-.156-.07-.278-.087-.485-.087-.294-.017-.52.017-.554.034-.38.07-2.25.397-4.812.897a1.998 1.998 0 00-.64.465 1.834 1.834 0 00-.398.69v12.172a.641.641 0 00.034.345c.052.138.121.207.208.31.104.12.208.242.38.31.157.07.278.087.485.087.295.017.52-.018.554-.035.381-.069 2.25-.396 4.812-.896.156-.07.398-.207.64-.466.243-.258.346-.534.398-.69v-11.62zm-1.834 11.069c-1.264.241-2.545.465-3.808.707V37.516c1.263-.241 2.544-.465 3.808-.707v10.776zm4.604-11.791c-.104-.07-.208-.121-.294-.19-.104-.12-.208-.259-.312-.38v-.947l7.028-1.242c-.035.828-.052 1.655-.087 2.483-.38.069-.762.138-1.142.19-.225-.173-.468-.345-.693-.518-.882.138-1.765.293-2.63.431-.018 1.242-.035 2.5-.035 3.759a3.56 3.56 0 002.008-.224c.38-.156.675-.38.9-.552v2.448c-.918.035-1.852.086-2.77.138-.034 1.776-.052 3.569-.086 5.345l.519.517c0 .362-.017.741-.017 1.103-.952.155-1.887.31-2.839.466-.035-.328-.052-.673-.087-1 .208-.293.399-.57.606-.862-.034-3.672-.052-7.31-.069-10.965zm8.827-1.69c-.104-.069-.207-.12-.294-.19-.104-.12-.208-.258-.312-.379v-.948c2.337-.414 4.691-.828 7.028-1.241-.035.827-.052 1.655-.087 2.482-.38.07-.761.138-1.142.19-.225-.172-.468-.345-.693-.517-.882.138-1.765.293-2.63.43-.018 1.242-.035 2.5-.035 3.76.38.068 1.16.137 2.008-.225.38-.155.675-.38.9-.552v2.449c-.918.034-1.852.086-2.77.138-.034 1.775-.051 3.568-.086 5.344l.52.517c0 .362-.018.742-.018 1.104l-2.839.465c-.034-.327-.052-.672-.086-1 .207-.293.398-.569.605-.862-.034-3.672-.052-7.327-.069-10.965zm-65.616.224c.208-.155.329-.362.329-.603 0-.483-.537-.88-1.229-.88-.692 0-1.229.38-1.229.88 0 .241.121.448.329.603-.38.19-.623.5-.623.862 0 .604.675 1.07 1.523 1.07.848 0 1.523-.466 1.523-1.07 0-.344-.242-.655-.623-.862zm-.9-.948c.398 0 .71.19.71.362 0 .173-.312.362-.71.362-.398 0-.71-.19-.71-.362s.33-.362.71-.362zm0 2.362c-.589 0-1.004-.293-1.004-.552 0-.258.415-.551 1.004-.551.588 0 1.004.293 1.004.551 0 .259-.398.552-1.004.552zM1.142 33H0v.517h.71v2.586h.519V33h-.087zm17.258.468c-.468-.776-2.113-.742-2.39.172 0 .017-.017.035-.017.052v.258h.502v-.189c.121-.431 1.09-.414 1.333-.138.485.534-.433.776-.796.93-.468.19-1.16.484-1.333 1.018h-.017v.5h2.717v-.517h-2.112c.554-.707 2.908-.742 2.112-2.086zM10.87 33v.517h1.817l-1.817 2.586h.64l1.817-2.586V33H10.87zm39.792 26.587l2.025-3.466c.104-.207.26-.31.45-.31h.26v-.172h-2.06v.172c.52 0 .779.103.779.293 0 .07 0 .138-.017.207l-1.35 2.552-1.437-2.655a.502.502 0 01-.035-.155c-.017-.052-.017-.087-.017-.121 0-.07.104-.12.294-.12h.398v-.173H47.65v.172c.33 0 .572.12.745.38l1.955 3.413h.312v-.017z"></path><path d="M51.147 58.483L49.9 56.19a.502.502 0 01-.034-.155c-.017-.052-.017-.086-.017-.12 0-.07.103-.121.294-.121h.398v-.173h-2.302v.172c.329 0 .57.121.744.38l1.696 2.965c.139-.224.294-.448.468-.655zm5.746 1.137c-.38 0-.744-.052-1.056-.156a2.618 2.618 0 01-.848-.43 2.137 2.137 0 01-.553-.639 1.58 1.58 0 01-.19-.793c0-.258.068-.517.19-.758a2.1 2.1 0 01.536-.655c.225-.19.52-.345.848-.466.33-.12.693-.172 1.09-.172.399 0 .762.051 1.091.155.329.103.623.241.866.414.242.172.432.396.57.638.14.241.208.517.208.793 0 .258-.069.5-.19.741a2.21 2.21 0 01-.554.672c-.242.207-.52.345-.865.466-.364.138-.745.19-1.143.19zm.052-.224c.312 0 .571-.052.78-.139.224-.086.397-.224.536-.379a1.51 1.51 0 00.311-.569c.07-.224.104-.448.104-.707 0-.24-.035-.465-.104-.69a1.512 1.512 0 00-.329-.585 1.44 1.44 0 00-.57-.414 2.157 2.157 0 00-.866-.155c-.312 0-.571.051-.78.155-.207.103-.38.224-.518.396a1.454 1.454 0 00-.277.57 2.986 2.986 0 00-.087.672c0 .258.035.5.104.724.07.224.173.414.329.586.138.172.329.293.554.397.242.086.519.137.813.137z"></path><path d="M56.824 59.517a2.45 2.45 0 01-.814-.138 2.091 2.091 0 01-.657-.397 1.784 1.784 0 01-.433-.586 1.702 1.702 0 01-.156-.724c0-.241.052-.466.139-.707.104-.224.242-.431.415-.603.173-.173.398-.31.658-.431s.536-.156.848-.156c.311 0 .588.052.848.138.26.087.485.224.658.38.19.172.329.362.432.586a1.723 1.723 0 010 1.43 2.435 2.435 0 01-.415.621c-.173.19-.398.328-.658.431-.26.104-.536.156-.865.156zm.052-.225c.242 0 .433-.034.606-.12a1.17 1.17 0 00.415-.345c.104-.155.19-.328.242-.517a2.61 2.61 0 00.087-.655 2.58 2.58 0 00-.087-.638 1.68 1.68 0 00-.242-.535 1.226 1.226 0 00-.45-.379c-.19-.104-.398-.138-.658-.138-.242 0-.433.052-.605.138a1.007 1.007 0 00-.399.362 1.66 1.66 0 00-.225.534 2.745 2.745 0 00.017 1.293c.053.207.14.38.26.535.121.155.26.276.433.362.173.069.38.103.606.103zm3.79.242v-.172c.173 0 .295 0 .398-.017a.68.68 0 00.243-.07.264.264 0 00.12-.172c.018-.069.035-.172.035-.293v-2.448a1.28 1.28 0 00-.034-.31.306.306 0 00-.139-.155.58.58 0 00-.26-.052 1.8 1.8 0 01-.38-.052v-.172c.104.017.225.017.346.017h.848c.139 0 .294-.017.433-.017.138 0 .294-.018.45-.018h.502c.467 0 .9.052 1.263.138.364.087.675.225.935.397.26.172.45.38.571.62.121.242.19.518.19.828a1.8 1.8 0 01-.19.81c-.12.242-.329.449-.606.621-.276.173-.623.293-1.055.397a8.03 8.03 0 01-1.558.138l-2.112-.018zm2.614-.224c.657 0 1.142-.138 1.471-.413.329-.276.485-.707.485-1.31 0-.587-.173-1.035-.537-1.311-.363-.276-.883-.414-1.558-.414h-.328c-.104 0-.19 0-.26.017-.07 0-.121.018-.156.052-.035.017-.07.07-.087.104-.017.051-.017.12-.017.19v2.637c0 .103.017.19.035.259.017.069.07.103.121.137a.434.434 0 00.225.052c.087 0 .208.017.346.017l.26-.017z"></path><path d="M61.86 59.103a.292.292 0 01-.12.173.45.45 0 01-.243.069c-.104.017-.242.017-.398.017v.172h2.112c.034-.086.069-.155.103-.224h-.207a.434.434 0 01-.225-.052c-.052-.034-.104-.068-.121-.137a.93.93 0 01-.035-.259v-2.638c0-.086 0-.155.017-.19a.177.177 0 01.087-.103.799.799 0 01.156-.052c.069 0 .155-.017.26-.017h.553l-.052-.259h-.588c-.156 0-.295.018-.45.018-.139 0-.295.017-.433.017h-.848c-.121 0-.243-.017-.346-.017v.19c.155.017.276.034.38.051.104.017.19.035.26.052a.24.24 0 01.138.155c.035.069.035.172.035.31v2.449c0 .103-.017.206-.035.275zm9.451.432v-.172c.33 0 .502-.035.502-.087 0-.051-.07-.155-.225-.293l-1.575-1.362-.398.242a.678.678 0 00-.173.138.41.41 0 00-.104.19v.792c0 .276.294.414.883.414v.172h-2.545v-.172c.537 0 .814-.138.814-.414V56.26c0-.293-.294-.43-.865-.43v-.173h2.492v.172c-.52 0-.779.138-.779.431v1.431l2.043-1.31c.138-.086.225-.155.26-.207.051-.052.068-.12.068-.207 0-.103-.207-.155-.606-.155v-.172h2.268v.172a10.2 10.2 0 00-.433.052 1.826 1.826 0 00-.329.086c-.103.035-.207.104-.311.172-.104.07-.26.156-.433.276l-1.229.81 2.008 1.76c.087.05.156.12.225.172.07.051.138.086.225.137.087.035.173.07.26.087.103.017.207.034.363.034v.172h-2.406v-.034z"></path><path d="M71.692 59.362v.172h2.094v-.206h-.034a.912.912 0 01-.26-.087.942.942 0 01-.225-.138 6.697 6.697 0 01-.225-.172l-2.008-1.759 1.229-.81c.173-.12.312-.207.433-.276.12-.069.207-.12.311-.172.104-.035.208-.07.33-.086.12-.018.259-.035.432-.052v-.173H71.5v.173c.399 0 .606.052.606.155 0 .086-.017.155-.069.207-.052.052-.138.12-.26.207l-2.042 1.31v-1.43c0-.294.26-.432.779-.432v-.172h-2.493v.172c.572 0 .866.138.866.431v2.724c0 .276-.277.414-.814.414v.172h2.545v-.172c-.589 0-.883-.138-.883-.414v-.793a.41.41 0 01.104-.19c.052-.051.104-.103.173-.137l.398-.242 1.575 1.362c.156.138.225.242.225.293-.017.087-.19.121-.52.121zm5.954.173v-.173c.086 0 .173-.017.26-.017a.993.993 0 00.242-.035c.069-.017.138-.034.19-.051.052-.017.07-.035.07-.07 0-.016-.018-.034-.018-.068 0-.035-.017-.07-.052-.104l-.398-.724c-.07-.103-.242-.155-.537-.155h-1.298c-.225 0-.363.052-.398.155l-.294.604a.343.343 0 00-.035.155c0 .172.26.276.762.276v.207h-1.956v-.207a.85.85 0 00.433-.12.731.731 0 00.294-.311l2.094-3.38.26.07 2.06 3.5c.086.086.138.137.19.155.017 0 .052.017.139.034.086.017.207.034.346.069v.172h-2.354v.018zm-.762-3.173l-.761 1.242c-.07.086-.104.155-.104.207 0 .051.104.086.329.086h1.107c.174 0 .26-.017.26-.07a.697.697 0 00-.104-.189l-.727-1.276z"></path><path d="M77.715 58.535l.208.397c.208-.155.45-.31.692-.431l-.692-1.155c-.225.12-.45.207-.692.276l.138.24c.07.104.104.173.104.19 0 .052-.087.07-.26.07h-1.107c-.208 0-.33-.035-.33-.087 0-.034.035-.103.105-.207l.034-.051c-.052 0-.104 0-.156-.017a3.91 3.91 0 01-.502.69c0 .12 0 .258-.017.378a.132.132 0 00.07.035l.173-.362c.051-.104.173-.155.398-.155h1.298c.294.034.467.086.536.19z"></path><path d="M79.048 59.294c-.086-.017-.138-.017-.138-.034-.052-.017-.104-.07-.19-.155l-1.8-3.035a3.514 3.514 0 01-.45.673l.518.896c.07.104.104.173.104.19 0 .052-.086.069-.26.069H76.4c.017.086.034.172.052.241h.346c.294 0 .467.052.537.155l.398.725c.034.051.052.086.052.103 0 .034 0 .052.017.069 0 .017-.017.052-.07.069a1.412 1.412 0 01-.19.052c-.069.017-.156.017-.242.034-.087 0-.173.017-.26.017v.173h2.389v-.173c-.173-.034-.294-.051-.38-.069zm-7.529-2.536h-.554v1.051h.554v-1.051zM23.418 23.757a15.696 15.696 0 01-1.298-6.259c0-2.258.485-4.413 1.35-6.379-.38-.224-.744-.465-1.107-.69a16.859 16.859 0 00-1.524 7.052c0 3.31.952 6.414 2.597 9.017v-2.741h-.018zm25.652 4.536c-2.856 3.018-6.872 4.897-11.32 4.897-4.587 0-8.724-2-11.58-5.172-.38.224-.761.448-1.125.69 3.099 3.534 7.65 5.775 12.688 5.775 5.244 0 9.935-2.414 13.05-6.19H49.07zm-11.337-26.5c6.49 0 12.064 4 14.435 9.672h1.385C51.129 5.07 44.95.5 37.733.5c-4.518 0-8.62 1.776-11.649 4.69.121.5.242.982.38 1.465a15.49 15.49 0 0111.269-4.862z"></path><path d="M24.44 26.034c-.122.241-.26.431-.381.552a2.05 2.05 0 01-.64.551c-.33.156-.537.121-.554.242-.035.138.26.345.554.414.19.034.415.034.882-.19.33-.155.762-.362 1.212-.828 0 0 .571-.603.882-1.517.295-.88.52-5.483.33-11.758.38.586.848 1.206 1.384 1.844a20.5 20.5 0 001.99 2.035c.33.207 1.004.569 1.905.551.328 0 .848-.017 1.384-.379.554-.38.796-.896.883-1.103-.156-4.431-.121-7.793 0-9.242.035-.43.121-1.258.64-2.086.433-.655.918-.948 1.021-1.017.606-.362 1.16-.38 1.576-.414.519-.034 1.09-.069 1.627.276.138.103.484.31.64.741.139.38.087.69.052.914-.052.293-.121.742-.502 1.07-.467.413-1.108.378-1.229.378h-.017c-.121 0-.606-.034-.918-.327-.052-.035-.502-.431-.38-.88.069-.258.311-.5.502-.465.207.035.173.345.467.5.208.12.536.138.744-.052.19-.19.19-.5.087-.69-.121-.275-.433-.379-.606-.413a1.353 1.353 0 00-1.212.241c-.502.397-.502 1.017-.502 1.104 0 .551.364.913.468 1.017.415.414.934.483 1.211.5.243.017.866.052 1.489-.328.104-.069.571-.362.883-.965.103-.207.45-.897.19-1.655-.242-.69-.814-1-1.16-1.207-.45-.259-.848-.328-1.107-.38a4.478 4.478 0 00-2.458.276c-.918.38-1.437.931-1.904 1.431-.398.431-1.108 1.207-1.489 2.449-.26.81-.26 1.517-.242 1.982v7.207c-2.302-2.88-4.604-5.758-6.906-8.62-.035-.362-.07-.707-.087-1.07-.796.656-1.592 1.294-2.388 1.949.207.103.398.224.605.327.381.57.745 1.138 1.108 1.707a4526.67 4526.67 0 00-.034 15.328z"></path><path d="M30.81 10.413c.068-.052.45-.396.432-.845 0-.051-.017-.31-.19-.379-.139-.069-.312.035-.381.069-.208.12-.208.259-.364.328-.207.103-.432 0-.502-.018-.311-.12-.502-.448-.519-.776 0-.43.312-.706.363-.758.243-.207.502-.241.9-.276.14-.017.468-.034.883.035.07 0 .139.017.208.034.19-.793.502-1.552.9-2.276-.121-.034-.242-.051-.363-.069-.45-.069-1.247-.19-2.164.121-.329.12-.9.31-1.42.862a2.872 2.872 0 00-.692 1.259c-.052.24-.328 1.293.312 2.19.121.171.52.74 1.264.844.103.017.813.103 1.332-.345zm24.18 11.329c-.105-.052-.226.052-.399.138 0 0-.121.069-.796.259-.883.241-2.285-.121-2.285-.121-3.098-.862-4.639-1.276-6.058-1.948-1.194-.552-2.786-1.328-4.552-2.776-.917-.759-1.835-1.673-1.765-1.742.069-.086 1.211.863 3.029 2.018 1.644 1.051 3.202 2.017 5.383 2.706 0 0 1.92.621 4.327.621.346 0 1.073-.017 1.852-.362.328-.138.588-.362 1.09-.759.173-.137.364-.31.364-.517 0-.138-.052-.327-.19-.379-.053-.017-.122-.034-.399.069a2.127 2.127 0 00-.45.241c-.242.155-.485.155-.97.173-1.055.017-1.592.034-1.92 0-1.489-.155-2.943-.62-3.6-.862-2.493-.862-4.05-1.88-4.709-2.345-.502-.362-1.367-1-1.298-1.104.07-.103.952.38 2.44 1.052 2.182 1 3.272 1.517 4.536 1.793 2.129.483 3.34.173 3.686.07.554-.156 1.437-.415 2.008-1.242.121-.173.52-.759.502-1.535a2.505 2.505 0 00-.38-1.241 3.305 3.305 0 00-1.299-1.293c-.346-.19-.83-.466-1.488-.38-.19.018-.762.087-1.16.552-.363.397-.38.862-.398.983 0 .086-.035.552.26.983.103.155.26.414.502.414.138 0 .294-.087.346-.207.017-.052.017-.104-.104-.362-.139-.328-.173-.328-.19-.431a.733.733 0 01.138-.518c.138-.207.346-.258.485-.31.26-.086.501-.069.64-.035.346.07.571.26.675.38.138.138.311.293.363.552a.867.867 0 01-.086.62c-.121.276-.346.414-.485.5-.225.138-.432.19-.727.242-.484.086-.83.138-1.367.12-.225 0-.744-.034-1.662-.31-.554-.155-2.232-.655-2.18-1.069.017-.224.501-.155.917-.655a1.69 1.69 0 00.346-.862c.017-.19.052-.483-.104-.776-.052-.12-.208-.397-.45-.414-.19-.017-.329.12-.363.138-.156.138-.122.31-.225.5-.122.241-.33.362-.572.483-.45.241-1.003.31-1.713.258-.416-.017-1.194-.103-2.181-.448a8.446 8.446 0 01-1.506-.69c-.675-.224-1.28-.69-1.783-1.19a5.213 5.213 0 01-.536-.275c-.571-.345-1.09-.81-1.61-1.224-.45-.362-.83-.862-1.315-1.19v4.07c.26 1.068.138 2.275-.208 3.292-.364 1.018-.883 1.983-1.8 2.604-.485.327-1.073.5-1.662.482-.242.018-.45 0-.57-.034-.209-.035-.71-.104-1.195-.431-.346-.242-.398-.431-.745-.517-.069-.018-.536-.138-.761.103-.035.035-.156.207-.035.69.208.776.745 1.258.866 1.38a3.3 3.3 0 00.519.378c.173.138.346.259.554.345 1.298.88 2.977 1.035 4.587.897 0 0 0 .017.017.017v3.121c0 .155.121.241.242.241v.035c.502.051 1.09.275 2.043.69.346.137 1.073.637 2.51 1.654 0 0 .674.483 1.47 1.345.191.207.433.5.468.914 0 .12.035.431-.173.724-.225.293-.571.328-.71.362a1.689 1.689 0 01-.657-.069c-.26-.086-.381-.207-.45-.155-.087.07-.052.293.034.448.07.121.208.259.64.38.364.103.953.241 1.61-.052.173-.086.796-.362 1.004-1.017.173-.517-.017-.983-.156-1.31-.242-.604-.623-.966-.865-1.19a44.485 44.485 0 00-2.925-2.5c-.866-.69-1.298-1.017-1.575-1.293-1.316-1.242-2.164-2.621-2.06-2.724.138-.121 1.454 1.81 4.223 3.69 1.385.93 1.212.55 4.016 2.154 0 0 .363.207 2.821 1.017.225.07.675.225.814.052.069-.103.052-.258-.035-.38-.156-.24-.571-.223-.658-.223-.605 0-1.644-.604-3.513-1.707-2.389-1.397-3.583-2.104-4.622-2.966-2.18-1.776-3.738-3.758-3.67-3.81.035-.034.52.431 1.541 1.328 1.818 1.586 3.306 2.879 5.28 4.034 1.298.759 2.267 1.138 4.119 1.88 0 0 2.042.792 4.69 1 .416.034 1.195.068 1.437-.328.07-.12.121-.328.035-.431-.104-.12-.381-.017-.468 0-.415.12-.986 0-2.111-.276-2.44-.586-5.522-2.19-5.522-2.19-2.06-1.069-3.686-1.948-5.47-3.62-.986-.931-1.99-2.07-1.886-2.19.139-.155 2.008 1.569 5.452 3.759.849.534 2.89 1.81 5.349 2.69 1.02.378 1.61.465 2.769.654 0 0 .935.156 2.302.018.415-.035.883-.121 1.073-.449.087-.138.121-.379.035-.465-.104-.104-.329.017-.554.103-.363.121-.675.07-1.316-.034-2.682-.414-4.275-1-4.275-1-1.298-.483-4.258-1.586-7.252-4.138-1.194-1.017-2.337-2.207-2.285-2.259.035-.052.848.655 1.645 1.276 3.167 2.466 6.11 3.672 7.027 4.017 0 0 2.7 1.035 5.089 1.087.71.017 1.298-.104 1.644-.173.225-.052.571-.19 1.28-.5.122-.052.347-.138.399-.345.138-.19.086-.396-.035-.448z"></path><path d="M32.263 21.896h2.406v8.259c.156.172.311.362.45.534.017.104.017.19.035.293h-3.376v-.327l.468-.466c0-2.758.017-5.517.017-8.293zm2.925-4.998V7.743c.139-.035.38-.07.658-.017.294.069.502.206.675.344a10.41 10.41 0 011.073.966c.917 1 .883 1.052 1.35 1.517.744.724.917.62 1.056.948.346.742-.312 1.69-1.23 2.966-.917 1.275-1.99 2.793-3.115 2.603-.207-.034-.363-.12-.467-.172z"></path></g><defs><clipPath id="clip0_7040_13282"><path fill="#fff" transform="translate(0 .5)" d="M0 0h80v61H0z"></path></clipPath></defs></svg> 